<?xml version="1.0" encoding="utf-8"?>
<!-- Generator: Adobe Illustrator 17.0.2, SVG Export Plug-In . SVG Version: 6.00 Build 0)  -->
<!DOCTYPE svg PUBLIC "-//W3C//DTD SVG 1.1//EN" "http://www.w3.org/Graphics/SVG/1.1/DTD/svg11.dtd">
<svg version="1.1" id="Layer_1" xmlns="http://www.w3.org/2000/svg" xmlns:xlink="http://www.w3.org/1999/xlink" x="0px" y="0px"
	 width="120px" height="16px" viewBox="0 0 120 16" enable-background="new 0 0 120 16" xml:space="preserve">
<g>
	<path fill="#FFFFFF" d="M7.054,15.665c-1.051,0-2.011-0.173-2.877-0.519c-0.867-0.347-1.61-0.855-2.229-1.525
		c-0.62-0.672-1.1-1.49-1.438-2.456C0.168,10.199,0,9.088,0,7.832c0-1.254,0.186-2.369,0.562-3.341
		c0.375-0.975,0.887-1.793,1.535-2.457C2.749,1.371,3.499,0.865,4.35,0.519C5.2,0.174,6.102,0,7.054,0c0.65,0,1.23,0.043,1.742,0.13
		c0.509,0.086,0.956,0.188,1.332,0.303c0.374,0.115,0.677,0.231,0.907,0.346c0.23,0.115,0.39,0.201,0.476,0.26L10.884,2.77
		c-0.131-0.086-0.317-0.181-0.563-0.282c-0.246-0.101-0.529-0.202-0.854-0.302c-0.325-0.101-0.682-0.185-1.073-0.25
		c-0.39-0.064-0.798-0.098-1.232-0.098c-0.735,0-1.406,0.138-2.012,0.411C4.544,2.524,4.025,2.921,3.592,3.44
		c-0.433,0.52-0.768,1.15-1.007,1.893C2.348,6.076,2.228,6.91,2.228,7.832c0,0.896,0.108,1.71,0.316,2.445
		c0.208,0.736,0.524,1.367,0.95,1.894c0.426,0.526,0.953,0.935,1.581,1.223c0.626,0.288,1.364,0.433,2.22,0.433
		c0.95,0,1.74-0.101,2.366-0.303c0.628-0.202,1.101-0.382,1.418-0.541l0.542,1.731c-0.101,0.073-0.283,0.162-0.542,0.272
		c-0.259,0.107-0.584,0.212-0.972,0.312c-0.391,0.102-0.845,0.189-1.363,0.26C8.221,15.629,7.66,15.665,7.054,15.665z"/>
	<path fill="#FFFFFF" d="M20.381,0.346c0.52,1.082,1.018,2.175,1.496,3.278c0.474,1.104,0.954,2.261,1.437,3.474
		c0.482,1.211,0.978,2.492,1.482,3.84c0.504,1.349,1.045,2.817,1.622,4.404h-2.29c-0.248-0.65-0.479-1.291-0.694-1.926
		c-0.217-0.635-0.44-1.277-0.672-1.925h-6.792l-1.363,3.851H12.42c0.576-1.587,1.116-3.054,1.624-4.404
		c0.503-1.348,0.999-2.628,1.482-3.84c0.482-1.212,0.962-2.37,1.437-3.474c0.476-1.104,0.975-2.196,1.496-3.277h1.923V0.346z
		 M19.363,2.748C18.86,3.83,18.38,4.955,17.925,6.123c-0.452,1.169-0.904,2.388-1.351,3.658h5.581
		c-0.46-1.255-0.918-2.47-1.372-3.647C20.327,4.959,19.854,3.83,19.363,2.748z"/>
	<path fill="#FFFFFF" d="M38.817,15.342c-0.317-0.534-0.682-1.133-1.093-1.797c-0.411-0.664-0.855-1.351-1.331-2.066
		c-0.475-0.713-0.97-1.439-1.482-2.174c-0.513-0.736-1.022-1.447-1.527-2.132c-0.505-0.686-0.995-1.331-1.469-1.936
		c-0.478-0.607-0.917-1.14-1.321-1.602v11.706h-2.056V0.346h1.665c0.68,0.722,1.403,1.562,2.176,2.521
		c0.77,0.959,1.537,1.947,2.293,2.964c0.756,1.017,1.471,2.017,2.142,2.997c0.672,0.981,1.238,1.853,1.698,2.617v-11.1h2.057v14.995
		L38.817,15.342L38.817,15.342z"/>
	<path fill="#FFFFFF" d="M71.576,15.342c-0.317-0.534-0.682-1.133-1.093-1.797c-0.411-0.664-0.854-1.351-1.332-2.066
		c-0.474-0.713-0.969-1.439-1.48-2.174c-0.513-0.736-1.021-1.447-1.527-2.132c-0.503-0.686-0.994-1.331-1.471-1.936
		c-0.476-0.607-0.916-1.14-1.32-1.602v11.706h-2.055V0.346h1.666c0.677,0.722,1.402,1.562,2.174,2.521s1.536,1.947,2.294,2.964
		c0.757,1.017,1.47,2.017,2.142,2.997c0.669,0.981,1.236,1.853,1.699,2.617v-11.1h2.054v14.995L71.576,15.342L71.576,15.342z"/>
	<path fill="#FFFFFF" d="M77.137,0.346h2.098v14.995h-2.098V0.346z"/>
	<path fill="#FFFFFF" d="M89.492,15.665c-1.053,0-2.014-0.173-2.878-0.519c-0.864-0.347-1.609-0.855-2.228-1.525
		c-0.62-0.672-1.101-1.49-1.439-2.456c-0.34-0.966-0.509-2.077-0.509-3.333c0-1.254,0.19-2.369,0.562-3.341
		c0.377-0.975,0.885-1.793,1.536-2.457c0.65-0.662,1.398-1.168,2.252-1.515C87.638,0.174,88.539,0,89.492,0
		c0.649,0,1.229,0.043,1.742,0.13c0.51,0.086,0.955,0.188,1.331,0.303c0.375,0.115,0.678,0.231,0.908,0.346
		c0.23,0.115,0.39,0.201,0.475,0.26L93.321,2.77c-0.13-0.086-0.317-0.181-0.564-0.282c-0.244-0.101-0.529-0.202-0.854-0.302
		c-0.323-0.101-0.68-0.185-1.067-0.25c-0.393-0.064-0.803-0.098-1.236-0.098c-0.735,0-1.406,0.138-2.012,0.411
		c-0.606,0.274-1.125,0.671-1.559,1.19c-0.433,0.52-0.768,1.15-1.007,1.893c-0.237,0.743-0.355,1.577-0.355,2.498
		c0,0.896,0.103,1.71,0.312,2.445c0.209,0.736,0.527,1.367,0.951,1.894c0.427,0.526,0.953,0.935,1.58,1.223
		c0.628,0.288,1.368,0.433,2.218,0.433c0.952,0,1.74-0.101,2.368-0.303c0.628-0.202,1.101-0.382,1.416-0.541l0.542,1.731
		c-0.101,0.073-0.282,0.162-0.542,0.272c-0.257,0.107-0.583,0.212-0.97,0.312c-0.391,0.102-0.845,0.189-1.365,0.26
		C90.66,15.629,90.097,15.665,89.492,15.665z"/>
	<path fill="#FFFFFF" d="M102.819,0.346c0.521,1.082,1.018,2.175,1.495,3.278c0.476,1.104,0.955,2.261,1.439,3.474
		c0.482,1.211,0.976,2.492,1.482,3.84c0.505,1.349,1.045,2.817,1.623,4.404h-2.295c-0.244-0.65-0.475-1.291-0.691-1.926
		c-0.217-0.635-0.44-1.277-0.671-1.925h-6.793l-1.362,3.851h-2.187c0.577-1.587,1.117-3.054,1.623-4.404
		c0.503-1.348,0.998-2.628,1.482-3.84c0.482-1.212,0.963-2.37,1.439-3.474c0.476-1.104,0.976-2.196,1.493-3.277h1.925V0.346z
		 M101.801,2.748c-0.503,1.082-0.983,2.207-1.437,3.375C99.91,7.292,99.46,8.511,99.011,9.78h5.582
		c-0.461-1.255-0.919-2.47-1.373-3.647C102.766,4.959,102.294,3.83,101.801,2.748z"/>
	<path fill="#FFFFFF" d="M120,13.588v1.754h-9.023V0.346h2.099v13.242H120z"/>
	<path fill="#FFFFFF" d="M50.934,12.821c-2.755,0-4.987-2.233-4.987-4.989c0-2.754,2.232-4.986,4.987-4.986
		c2.755,0,4.987,2.232,4.987,4.986C55.921,10.588,53.689,12.821,50.934,12.821z"/>
	<path fill="#FFFFFF" d="M58.768,7.833c0,4.325-3.508,7.832-7.833,7.832c-4.327,0-7.833-3.507-7.833-7.832
		C43.102,3.507,46.607,0,50.934,0C55.26,0,58.768,3.507,58.768,7.833z M50.934,1.905c-3.275,0-5.928,2.655-5.928,5.928
		c0,3.274,2.653,5.927,5.928,5.927c3.276,0,5.927-2.652,5.927-5.927C56.861,4.56,54.21,1.905,50.934,1.905z"/>
</g>
</svg>
