<?xml version="1.0" encoding="iso-8859-1"?>
<!-- Generator: Adobe Illustrator 17.0.2, SVG Export Plug-In . SVG Version: 6.00 Build 0)  -->
<!DOCTYPE svg PUBLIC "-//W3C//DTD SVG 1.1//EN" "http://www.w3.org/Graphics/SVG/1.1/DTD/svg11.dtd">
<svg version="1.1" id="icon-about-news-layer" xmlns="http://www.w3.org/2000/svg" xmlns:xlink="http://www.w3.org/1999/xlink"
	 x="0px" y="0px" width="24px" height="24px" viewBox="0 0 24 24" style="enable-background:new 0 0 24 24;" xml:space="preserve">
<g id="icon-about-news_1_">
	<rect style="opacity:0;fill:#DD4814;" width="24" height="24"/>
	<g id="layer1_2_" transform="translate(0,-1030.3622)">
		<path id="path2993" style="fill:#DD4814;" d="M2.375,1031.362c-0.761,0-1.375,0.613-1.375,1.375
			v19.25c0,0.763,0.614,1.375,1.375,1.375h19.25c0.763,0,1.375-0.612,1.375-1.375v-19.25c0-0.762-0.612-1.375-1.375-1.375H2.375z
			 M3.75,1034.112c9.113,0,16.5,7.387,16.5,16.5h-3.309c-0.004-7.283-5.908-13.187-13.191-13.191V1034.112L3.75,1034.112z
			 M3.75,1039.655c6.041-0.011,10.946,4.877,10.957,10.917c0,0.013,0,0.027,0,0.04h-3.223c0.001-4.27-3.458-7.732-7.728-7.734
			c-0.003,0-0.004,0-0.007,0V1039.655z M5.984,1046.101c1.25,0,2.277,1.028,2.277,2.277s-1.027,2.234-2.277,2.234
			c-1.249,0-2.234-0.986-2.234-2.234S4.736,1046.101,5.984,1046.101z"/>
	</g>
</g>
</svg>
