<?xml version="1.0" encoding="utf-8"?>
<!-- Generator: Adobe Illustrator 17.0.2, SVG Export Plug-In . SVG Version: 6.00 Build 0)  -->
<!DOCTYPE svg PUBLIC "-//W3C//DTD SVG 1.1//EN" "http://www.w3.org/Graphics/SVG/1.1/DTD/svg11.dtd">
<svg version="1.1" id="Layer_1" xmlns="http://www.w3.org/2000/svg" xmlns:xlink="http://www.w3.org/1999/xlink" x="0px" y="0px"
	 width="32px" height="32px" viewBox="0 0 32 32" enable-background="new 0 0 32 32" xml:space="preserve">
<g id="BK">
</g>
<g id="Comp">
	<path fill="#FFFFFF" d="M13.903,27.697c-1.759-0.145-3.188-0.416-4.285-0.813s-1.911-0.728-2.44-0.994l1.555-4.158
		c0.844,0.409,1.849,0.783,3.019,1.12c1.169,0.339,2.404,0.506,3.706,0.506c1.47,0,2.477-0.199,3.019-0.597
		c0.542-0.397,0.813-0.958,0.813-1.681c0-0.458-0.108-0.85-0.326-1.175c-0.217-0.326-0.53-0.62-0.94-0.886
		c-0.41-0.265-0.929-0.524-1.555-0.778c-0.627-0.253-1.351-0.524-2.17-0.813c-0.795-0.289-1.572-0.608-2.332-0.958
		c-0.759-0.35-1.446-0.778-2.061-1.283c-0.615-0.506-1.109-1.127-1.482-1.863c-0.374-0.735-0.561-1.621-0.561-2.657
		c0-0.796,0.114-1.561,0.344-2.296c0.228-0.735,0.584-1.404,1.066-2.007c0.482-0.602,1.108-1.114,1.88-1.536
		c0.771-0.422,1.687-0.729,2.748-0.922V0h4.556v3.761c1.253,0.12,2.332,0.301,3.236,0.542c0.904,0.242,1.621,0.483,2.152,0.724
		l-1.121,4.339c-0.796-0.338-1.718-0.627-2.766-0.867c-1.049-0.242-2.152-0.362-3.309-0.362s-1.988,0.193-2.495,0.578
		c-0.506,0.386-0.759,0.893-0.759,1.518c0,0.386,0.078,0.718,0.235,0.994c0.157,0.278,0.403,0.525,0.741,0.742
		s0.753,0.428,1.247,0.633c0.494,0.206,1.091,0.429,1.79,0.671c1.06,0.386,2.043,0.81,2.947,1.268
		c0.904,0.459,1.687,0.984,2.35,1.574c0.663,0.59,1.181,1.283,1.555,2.078c0.373,0.796,0.56,1.724,0.56,2.784
		c0,0.723-0.108,1.439-0.325,2.15c-0.217,0.711-0.579,1.367-1.085,1.97c-0.506,0.602-1.163,1.12-1.97,1.555
		c-0.808,0.434-1.802,0.746-2.983,0.939V32h-4.556v-4.303H13.903z"/>
</g>
<g id="Grid" display="none">
	<g id="Grid_1_" display="inline">
	</g>
</g>
<g id="Labels">
</g>
</svg>
