<?xml version="1.0" encoding="utf-8"?>
<!-- Generator: Adobe Illustrator 17.0.2, SVG Export Plug-In . SVG Version: 6.00 Build 0)  -->
<!DOCTYPE svg PUBLIC "-//W3C//DTD SVG 1.1//EN" "http://www.w3.org/Graphics/SVG/1.1/DTD/svg11.dtd">
<svg version="1.1" id="Layer_1" xmlns="http://www.w3.org/2000/svg" xmlns:xlink="http://www.w3.org/1999/xlink" x="0px" y="0px"
	 width="32px" height="32px" viewBox="0 0 32 32" enable-background="new 0 0 32 32" xml:space="preserve">
<g id="BK">
</g>
<g id="Comp">
	<path id="path4984" fill="#FFFFFF" d="M12.797,12.746C12.606,13.51,0.645,16.5,0.072,15.928C-0.5,15.355,2.49,3.394,3.254,3.203
		C4.017,3.012,12.988,11.983,12.797,12.746L12.797,12.746z"/>
	<path id="path2992" fill="#FFFFFF" d="M16.103,2.17C11.66,2.487,7.442,4.935,5.055,9.07l2.772,1.592
		c2.955-5.118,9.458-6.857,14.576-3.902s6.857,9.458,3.902,14.576s-9.458,6.857-14.576,3.902c-0.807-0.466-1.543-1.041-2.202-1.7
		l-2.271,2.271c0.857,0.857,1.83,1.596,2.88,2.202c6.616,3.82,15.121,1.534,18.941-5.082s1.534-15.121-5.082-18.941
		C21.515,2.556,18.769,1.98,16.103,2.17z"/>
</g>
<g id="Grid" display="none">
	<g id="Grid_1_" display="inline">
	</g>
</g>
<g id="Labels">
</g>
</svg>
