<?xml version="1.0" encoding="utf-8"?>
<!-- Generator: Adobe Illustrator 17.0.2, SVG Export Plug-In . SVG Version: 6.00 Build 0)  -->
<!DOCTYPE svg PUBLIC "-//W3C//DTD SVG 1.1//EN" "http://www.w3.org/Graphics/SVG/1.1/DTD/svg11.dtd">
<svg version="1.1" id="Layer_1" xmlns="http://www.w3.org/2000/svg" xmlns:xlink="http://www.w3.org/1999/xlink" x="0px" y="0px"
	 width="32px" height="32px" viewBox="0 0 32 32" enable-background="new 0 0 32 32" xml:space="preserve">
<g id="BK">
</g>
<g id="Comp">
	<path id="rect5431" fill="#FFFFFF" d="M19.72,0l-7.44,1.488v3.195c-1.668,0.531-3.23,1.413-4.555,2.619l-3.4-1.966l-3.72,6.443
		l3.407,1.969c-0.379,1.748-0.365,3.537,0.01,5.245l-3.417,1.973l3.72,6.44l3.403-1.966c0.64,0.585,1.352,1.112,2.131,1.562
		c0.781,0.451,1.592,0.805,2.42,1.067V32h7.44v-3.949c1.666-0.53,3.224-1.413,4.548-2.616l3.407,1.969l3.72-6.44l-3.41-1.969
		c0.38-1.747,0.37-3.537-0.003-5.245l3.413-1.973l-3.72-6.443L24.277,7.3c-0.642-0.588-1.355-1.117-2.138-1.569
		c-0.781-0.451-1.592-0.805-2.42-1.067L19.72,0z M15.842,10.331c1.068-0.02,2.162,0.244,3.168,0.825
		c2.927,1.69,3.901,5.353,2.235,8.237c-1.665,2.884-5.327,3.875-8.254,2.185s-3.901-5.353-2.235-8.237
		C11.848,11.448,13.802,10.37,15.842,10.331z"/>
</g>
<g id="Grid" display="none">
	<g id="Grid_1_" display="inline">
	</g>
</g>
<g id="Labels">
</g>
</svg>
