<?xml version="1.0" encoding="utf-8"?>
<!-- Generator: Adobe Illustrator 17.0.2, SVG Export Plug-In . SVG Version: 6.00 Build 0)  -->
<!DOCTYPE svg PUBLIC "-//W3C//DTD SVG 1.1//EN" "http://www.w3.org/Graphics/SVG/1.1/DTD/svg11.dtd">
<svg version="1.1" id="Layer_1" xmlns="http://www.w3.org/2000/svg" xmlns:xlink="http://www.w3.org/1999/xlink" x="0px" y="0px"
	 width="32px" height="32px" viewBox="0 0 32 32" enable-background="new 0 0 32 32" xml:space="preserve">
<g id="BK">
</g>
<g id="Comp">
	<path fill="#FFFFFF" d="M31,16c0,8.284-6.716,15-14.999,15C7.715,31,1,24.284,1,16S7.715,1,16.001,1C24.285,1,31,7.716,31,16z
		 M5.801,13.997c-1.106,0-2.004,0.897-2.004,2.003s0.897,2.002,2.004,2.002c1.106,0,2.002-0.896,2.002-2.002
		C7.803,14.894,6.907,13.997,5.801,13.997z M20.099,23.099c-0.958,0.553-1.286,1.777-0.733,2.735s1.777,1.286,2.735,0.733
		s1.286-1.777,0.733-2.735C22.282,22.875,21.056,22.547,20.099,23.099z M10.151,16c0-1.979,0.983-3.728,2.488-4.787l-1.465-2.452
		c-1.752,1.171-3.056,2.961-3.598,5.057C8.208,14.335,8.613,15.12,8.613,16c0,0.88-0.405,1.665-1.037,2.181
		c0.541,2.097,1.845,3.887,3.598,5.058l1.465-2.453C11.133,19.728,10.151,17.979,10.151,16z M16.001,10.15
		c3.055,0,5.563,2.343,5.826,5.331l2.854-0.042c-0.141-2.206-1.104-4.187-2.585-5.643c-0.761,0.288-1.641,0.244-2.401-0.194
		c-0.762-0.44-1.239-1.181-1.369-1.986C17.584,7.412,16.805,7.3,16,7.3c-1.384,0-2.693,0.325-3.855,0.901l1.392,2.493
		C14.285,10.346,15.12,10.15,16.001,10.15z M16.001,21.85c-0.881,0-1.716-0.196-2.464-0.544l-1.392,2.493
		c1.162,0.576,2.471,0.901,3.856,0.901c0.805,0,1.584-0.112,2.324-0.317c0.131-0.805,0.608-1.545,1.369-1.986
		c0.761-0.439,1.64-0.482,2.401-0.195c1.481-1.456,2.445-3.437,2.585-5.643l-2.854-0.042C21.563,19.507,19.056,21.85,16.001,21.85z
		 M20.098,8.9c0.958,0.553,2.182,0.226,2.735-0.732c0.553-0.958,0.225-2.182-0.733-2.736c-0.957-0.553-2.182-0.224-2.735,0.734
		C18.813,7.123,19.141,8.347,20.098,8.9z"/>
</g>
<g id="Grid" display="none">
	<g id="Grid_1_" display="inline">
	</g>
</g>
<g id="Labels">
</g>
</svg>
