<?xml version="1.0" encoding="iso-8859-1"?>
<!-- Generator: Adobe Illustrator 17.0.2, SVG Export Plug-In . SVG Version: 6.00 Build 0)  -->
<!DOCTYPE svg PUBLIC "-//W3C//DTD SVG 1.1//EN" "http://www.w3.org/Graphics/SVG/1.1/DTD/svg11.dtd">
<svg version="1.1" id="icon-about-location-layer" xmlns="http://www.w3.org/2000/svg" xmlns:xlink="http://www.w3.org/1999/xlink"
	 x="0px" y="0px" width="24px" height="24px" viewBox="0 0 24 24" style="enable-background:new 0 0 24 24;" xml:space="preserve">
<g id="icon-about-location">
	<rect style="opacity:0;fill:#DD4814;" width="24" height="24"/>
	<path style="fill:#DD4814;" d="M12,0C8.023,0,4.8,3.223,4.8,7.2c0,0.15,0.008,0.294,0.016,0.441
		c0.003,0.066,0.003,0.132,0.009,0.199C4.83,7.902,4.844,7.965,4.849,8.025C5.392,13.828,11.179,24,12,24
		c0.82,0,6.608-10.172,7.15-15.975c0.006-0.061,0.021-0.123,0.026-0.183c0.006-0.066,0.004-0.134,0.009-0.199
		c0.006-0.15,0.015-0.3,0.015-0.443C19.2,3.223,15.976,0,12,0z M12,4.8c1.326,0,2.4,1.074,2.4,2.4S13.326,9.6,12,9.6
		S9.6,8.526,9.6,7.2S10.674,4.8,12,4.8z"/>
</g>
</svg>
