<?xml version="1.0" encoding="utf-8"?>
<!-- Generator: Adobe Illustrator 17.0.2, SVG Export Plug-In . SVG Version: 6.00 Build 0)  -->
<!DOCTYPE svg PUBLIC "-//W3C//DTD SVG 1.1//EN" "http://www.w3.org/Graphics/SVG/1.1/DTD/svg11.dtd">
<svg version="1.1" id="Layer_1" xmlns="http://www.w3.org/2000/svg" xmlns:xlink="http://www.w3.org/1999/xlink" x="0px" y="0px"
	 width="32px" height="32px" viewBox="0 0 32 32" enable-background="new 0 0 32 32" xml:space="preserve">
<g id="BK">
</g>
<g id="Comp">
	<path fill="#FFFFFF" d="M16,25.551c-5.275,0-9.551-4.275-9.551-9.551c0-5.275,4.276-9.551,9.551-9.551s9.551,4.276,9.551,9.551
		C25.552,21.276,21.276,25.551,16,25.551z M31,16c0,8.284-6.716,15-15,15C7.715,31,1,24.284,1,16S7.715,1,16,1
		C24.284,1,31,7.716,31,16z M16,4.649C9.731,4.649,4.649,9.731,4.649,16c0,6.27,5.081,11.351,11.351,11.351S27.351,22.27,27.351,16
		C27.351,9.731,22.27,4.649,16,4.649z"/>
</g>
<g id="Grid" display="none">
	<g id="Grid_1_" display="inline">
	</g>
</g>
<g id="Labels">
</g>
</svg>
