<?xml version="1.0" encoding="utf-8"?>
<!-- Generator: Adobe Illustrator 17.0.2, SVG Export Plug-In . SVG Version: 6.00 Build 0)  -->
<!DOCTYPE svg PUBLIC "-//W3C//DTD SVG 1.1//EN" "http://www.w3.org/Graphics/SVG/1.1/DTD/svg11.dtd">
<svg version="1.1" id="Layer_1" xmlns="http://www.w3.org/2000/svg" xmlns:xlink="http://www.w3.org/1999/xlink" x="0px" y="0px"
	 width="32px" height="32px" viewBox="0 0 32 32" enable-background="new 0 0 32 32" xml:space="preserve">
<g id="BK">
</g>
<g id="Comp">
	<path id="rect1227_1_" fill="#FFFFFF" d="M3,1C1.892,1,1,1.892,1,3v7h6V8c0-0.554,0.445-1,1-1h16c0.553,0,1,0.446,1,1v2h6V3
		c0-1.108-0.892-2-2-2H3z M1,12v8h6v-8H1z M25,12v8h6v-8H25z M1,22v7c0,1.107,0.892,2,2,2h26c1.107,0,2-0.892,2-2v-7h-6v1.999
		c0,0.554-0.447,1-1,1H8c-0.555,0-1-0.446-1-1V22H1z"/>
</g>
<g id="Grid" display="none">
	<g id="Grid_1_" display="inline">
	</g>
</g>
<g id="Labels">
</g>
</svg>
