<?xml version="1.0" encoding="iso-8859-1"?>
<!-- Generator: Adobe Illustrator 17.0.2, SVG Export Plug-In . SVG Version: 6.00 Build 0)  -->
<!DOCTYPE svg PUBLIC "-//W3C//DTD SVG 1.1//EN" "http://www.w3.org/Graphics/SVG/1.1/DTD/svg11.dtd">
<svg version="1.1" id="icon-about-community-layer" xmlns="http://www.w3.org/2000/svg" xmlns:xlink="http://www.w3.org/1999/xlink"
	 x="0px" y="0px" width="24px" height="24px" viewBox="0 0 24 24" style="enable-background:new 0 0 24 24;" xml:space="preserve">
<g id="icon-about-community">
	<rect style="opacity:0;fill:#DD4814;" width="24" height="24"/>
	<path style="fill:#DD4814;" d="M9.042,15.475c0.801,0.722,1.74,1.333,2.967,1.333s2.167-0.611,2.967-1.333
		c0.346-0.312,0.668-0.659,0.975-1.033c5.103,0.26,6.45,1.906,6.45,5.558v1.6c0,2.4,0,2.4-3.2,2.4H4.8c-3.2,0-3.2,0-3.2-2.4V20
		c0-3.654,1.349-5.3,6.458-5.558C8.367,14.817,8.695,15.162,9.042,15.475z M12,0C8,0,6.4,1.6,6.4,5.6v0.8c0,3.2,3.209,8.8,5.604,8.8
		c2.395,0,5.595-5.6,5.595-8.8V5.6C17.6,1.6,16,0,12,0L12,0z"/>
</g>
</svg>
