<?xml version="1.0" encoding="utf-8"?>
<!-- Generator: Adobe Illustrator 17.0.2, SVG Export Plug-In . SVG Version: 6.00 Build 0)  -->
<!DOCTYPE svg PUBLIC "-//W3C//DTD SVG 1.1//EN" "http://www.w3.org/Graphics/SVG/1.1/DTD/svg11.dtd">
<svg version="1.1" id="Layer_1" xmlns="http://www.w3.org/2000/svg" xmlns:xlink="http://www.w3.org/1999/xlink" x="0px" y="0px"
	 width="32px" height="32px" viewBox="0 0 32 32" enable-background="new 0 0 32 32" xml:space="preserve">
<g id="BK">
</g>
<g id="Grid" display="none">
	<g id="Grid_1_" display="inline">
	</g>
</g>
<g id="Labels">
</g>
<path fill-rule="evenodd" clip-rule="evenodd" fill="#FFFFFF" d="M1,30.889V1.111h5.461v2.722H5.076v2.728h5.455V3.833H9.189V1.111
	h5.454v2.722h-1.374v2.728h5.454V3.833H17.37V1.111h5.454v2.722h-1.373v2.728h5.454V3.833h-1.354V1.111H31v29.777L1,30.889L1,30.889
	z M10.854,26.393c-0.323,0-0.665-0.021-1.025-0.063c-0.359-0.042-0.707-0.099-1.043-0.17c-0.336-0.073-0.641-0.15-0.916-0.234
	c-0.277-0.084-0.491-0.163-0.648-0.234l0.523-2.229c0.312,0.131,0.71,0.272,1.196,0.423c0.484,0.149,1.087,0.225,1.807,0.225
	c0.826,0,1.434-0.156,1.816-0.468c0.384-0.312,0.576-0.731,0.576-1.259c0-0.324-0.07-0.597-0.207-0.818
	c-0.138-0.222-0.327-0.402-0.566-0.54s-0.525-0.234-0.855-0.288c-0.329-0.054-0.68-0.081-1.05-0.081H9.416v-2.158h1.186
	c0.265,0,0.517-0.024,0.765-0.071c0.245-0.048,0.465-0.129,0.657-0.243c0.191-0.114,0.344-0.269,0.458-0.467
	c0.114-0.199,0.171-0.447,0.171-0.747c0-0.229-0.048-0.425-0.144-0.594c-0.097-0.168-0.22-0.306-0.37-0.414
	c-0.149-0.107-0.322-0.188-0.52-0.242c-0.198-0.054-0.399-0.081-0.603-0.081c-0.516,0-0.992,0.079-1.43,0.234
	C9.148,16.03,8.75,16.222,8.391,16.45l-0.953-1.96c0.191-0.12,0.416-0.246,0.673-0.378c0.259-0.132,0.544-0.252,0.854-0.359
	c0.312-0.108,0.646-0.198,0.998-0.27c0.354-0.072,0.728-0.108,1.125-0.108c0.731,0,1.363,0.087,1.896,0.26
	c0.533,0.174,0.976,0.419,1.322,0.737c0.348,0.317,0.606,0.688,0.774,1.113c0.168,0.424,0.252,0.889,0.252,1.392
	c0,0.491-0.139,0.967-0.413,1.428c-0.276,0.461-0.649,0.811-1.116,1.051c0.648,0.264,1.148,0.657,1.502,1.18
	c0.354,0.522,0.531,1.149,0.531,1.881c0,0.577-0.097,1.107-0.289,1.594c-0.191,0.486-0.491,0.907-0.898,1.261
	c-0.408,0.354-0.928,0.631-1.556,0.828C12.464,26.293,11.717,26.393,10.854,26.393z M17.328,16.25
	c0.349-0.145,0.711-0.309,1.088-0.495c0.379-0.186,0.747-0.39,1.107-0.611c0.359-0.222,0.703-0.456,1.033-0.701
	c0.33-0.246,0.627-0.507,0.891-0.783h1.869v12.463h-2.678v-8.975c-0.36,0.24-0.761,0.458-1.206,0.656
	c-0.443,0.198-0.875,0.369-1.294,0.513L17.328,16.25z"/>
</svg>
