<?xml version="1.0" encoding="utf-8"?>
<!-- Generator: Adobe Illustrator 17.0.2, SVG Export Plug-In . SVG Version: 6.00 Build 0)  -->
<!DOCTYPE svg PUBLIC "-//W3C//DTD SVG 1.1//EN" "http://www.w3.org/Graphics/SVG/1.1/DTD/svg11.dtd">
<svg version="1.1" id="Layer_1" xmlns="http://www.w3.org/2000/svg" xmlns:xlink="http://www.w3.org/1999/xlink" x="0px" y="0px"
	 width="32px" height="32px" viewBox="0 0 32 32" enable-background="new 0 0 32 32" xml:space="preserve">
<g id="BK">
</g>
<g id="Comp">
	<path id="path4101" fill="#FFFFFF" d="M9.999,13.496c-5.362,0-5.974,0.029-6.001,3.501v0.25v4.251h24.005v-4.251v-0.25
		c-0.027-3.472-0.639-3.501-6.001-3.501H9.999z M3.997,22.998v4.251v0.25C4.025,30.971,4.637,31,9.999,31h12.003
		c5.362,0,5.974-0.029,6.001-3.501v-0.25v-4.251C28.003,22.998,3.997,22.998,3.997,22.998z"/>
	<path id="rect4118" fill="#FFFFFF" d="M16,1c-4.407,0-8.002,3.595-8.002,8.002v4.501c0,4.407,3.595,8.002,8.002,8.002
		s8.002-3.595,8.002-8.002V9.002C24.002,4.595,20.407,1,16,1z M16,4.001c2.797,0,5.001,2.205,5.001,5.001v4.501
		c0,2.797-2.205,5.001-5.001,5.001s-5.001-2.205-5.001-5.001V9.002C10.999,6.205,13.203,4.001,16,4.001z"/>
</g>
<g id="Grid" display="none">
	<g id="Grid_1_" display="inline">
	</g>
</g>
<g id="Labels">
</g>
</svg>
