<?xml version="1.0" encoding="utf-8"?>
<!-- Generator: Adobe Illustrator 17.0.2, SVG Export Plug-In . SVG Version: 6.00 Build 0)  -->
<!DOCTYPE svg PUBLIC "-//W3C//DTD SVG 1.1//EN" "http://www.w3.org/Graphics/SVG/1.1/DTD/svg11.dtd">
<svg version="1.1" id="Layer_1" xmlns="http://www.w3.org/2000/svg" xmlns:xlink="http://www.w3.org/1999/xlink" x="0px" y="0px"
	 width="32px" height="32px" viewBox="0 0 32 32" enable-background="new 0 0 32 32" xml:space="preserve">
<g id="BK">
</g>
<g id="Comp">
	<path id="rect3461-3-1" fill="#FFFFFF" d="M7.18,15.946C2.286,16.182,1,17.745,1,21.225v5.465c0,2.277-0.002,2.282,3.035,2.282
		h13.668c3.036,0,3.035-0.005,3.035-2.282v-5.465c0-3.48-1.286-5.044-6.18-5.28c-0.273,0.322-0.552,0.631-0.851,0.901
		c-0.755,0.68-1.674,1.283-2.837,1.283s-2.083-0.602-2.837-1.283C7.733,16.577,7.453,16.267,7.18,15.946z"/>
	<path id="path3447-0-6" fill="#FFFFFF" d="M10.869,2.13c-3.795,0-5.314,1.518-5.314,5.314v0.759c0,3.036,3.045,8.35,5.318,8.35
		s5.309-5.314,5.309-8.35V7.444C16.182,3.648,14.664,2.13,10.869,2.13z"/>
	<path id="rect3461-3-1-2" fill="#FFFFFF" d="M26.152,17.623c-0.177,0.208-0.357,0.408-0.555,0.592
		c-0.633,0.589-1.41,1.123-2.492,1.123c-0.323,0-0.617-0.053-0.888-0.136c0.046,0.406,0.074,0.826,0.074,1.246v6.155h6.279
		c2.429,0,2.43-0.004,2.43-1.863v-2.812C31,19.11,29.986,17.833,26.152,17.623z"/>
	<path id="path3447-0-6-8" fill="#FFFFFF" d="M23.103,6.077c-2.985,0-4.178,1.23-4.178,4.305v0.615c0,2.46,2.395,6.765,4.182,6.765
		s4.175-4.305,4.175-6.765v-0.615C27.282,7.307,26.088,6.077,23.103,6.077z"/>
</g>
<g id="Grid" display="none">
	<g id="Grid_1_" display="inline">
	</g>
</g>
<g id="Labels">
</g>
</svg>
