<?xml version="1.0" encoding="utf-8"?>
<!-- Generator: Adobe Illustrator 17.0.2, SVG Export Plug-In . SVG Version: 6.00 Build 0)  -->
<!DOCTYPE svg PUBLIC "-//W3C//DTD SVG 1.1//EN" "http://www.w3.org/Graphics/SVG/1.1/DTD/svg11.dtd">
<svg version="1.1" xmlns="http://www.w3.org/2000/svg" xmlns:xlink="http://www.w3.org/1999/xlink" x="0px" y="0px" width="365px"
	 height="236px" viewBox="0 0 365 236" enable-background="new 0 0 365 236" xml:space="preserve">
<g id="BK">
</g>
<g id="Comp">
	<g>
		<path opacity="0.2" fill="#AEA79F" d="M296.555,235.671H68.446C30.646,235.671,0,205.033,0,167.24
			c0-36.386,28.378-66.111,64.2-68.308C48.188,66.818,59.752,27.368,91.253,9.175c31.502-18.182,71.439-8.476,91.25,21.456
			c19.814-29.923,59.742-39.635,91.252-21.447c31.5,18.19,43.058,57.633,27.042,89.749c35.836,2.197,64.203,31.93,64.203,68.311
			C365,205.033,334.351,235.671,296.555,235.671z"/>
		<circle opacity="0" fill="#DD4814" cx="297" cy="168" r="68"/>
		<circle opacity="0" fill="#DD4814" cx="240" cy="68" r="68"/>
		<circle opacity="0" fill="#DD4814" cx="68" cy="168" r="68"/>
		<circle opacity="0" fill="#DD4814" cx="125" cy="68" r="68"/>
		<g>
			<circle fill="#19B3EB" cx="68" cy="168" r="50"/>
			<path fill="#38B14A" d="M68,118c-8.982,0-17.41,2.37-24.695,6.516L68,168h50C118,140.386,95.614,118,68,118z"/>
			<polyline fill="none" stroke="#FFFFFF" stroke-width="1.5166" stroke-miterlimit="10" points="43.305,124.516 68,168 118,168 			
				"/>
			<g>
				<path fill="#DADADA" d="M68,188.758c-11.446,0-20.758-9.312-20.758-20.758S56.554,147.242,68,147.242
					c11.446,0,20.758,9.312,20.758,20.758S79.446,188.758,68,188.758z"/>
				<path fill="#FFFFFF" d="M68,148c11.046,0,20,8.954,20,20s-8.954,20-20,20c-11.046,0-20-8.954-20-20S56.954,148,68,148
					 M68,146.483c-11.864,0-21.517,9.652-21.517,21.517S56.136,189.517,68,189.517c11.864,0,21.516-9.652,21.516-21.517
					S79.864,146.483,68,146.483L68,146.483z"/>
			</g>
			<circle fill="#FFFFFF" cx="68" cy="168" r="10"/>
		</g>
		<path fill="#5E2750" d="M332.41,193.081h8.916C332.655,207.967,316.532,218,298.098,218c-18.427,0-34.545-10.026-43.219-24.903
			h18.168c2.589,0,4.688-2.099,4.688-4.688s-2.1-4.687-4.688-4.687h-22.403c-0.453-1.365-0.848-2.755-1.185-4.17h23.588
			c2.589,0,4.688-2.099,4.688-4.687c0-2.59-2.1-4.687-4.688-4.687h-24.894c-0.033-0.723-0.056-1.45-0.056-2.18
			c0-0.667,0.023-1.329,0.051-1.99h24.899c2.589,0,4.688-2.099,4.688-4.688s-2.1-4.687-4.688-4.687h-23.632
			c0.331-1.415,0.716-2.806,1.164-4.171h22.467c2.589,0,4.688-2.099,4.688-4.689c0-2.588-2.1-4.687-4.688-4.687h-18.274
			C263.419,128.109,279.595,118,298.098,118c18.502,0,34.674,10.107,43.323,25.082h-9.018l0.04,0.006H290.23
			c-2.589,0-4.688,2.1-4.688,4.687c0,2.59,2.099,4.689,4.688,4.689h22.665c-1.035,1.29-1.946,2.686-2.712,4.168v0.003H290.23
			c-2.589,0-4.688,2.099-4.688,4.687c0,2.589,2.099,4.688,4.688,4.688h17.258c-0.056,0.682-0.086,1.373-0.086,2.072
			c0.002,0.708,0.031,1.407,0.09,2.098h-0.002h-17.26c-2.589,0-4.688,2.097-4.688,4.687c0,2.589,2.099,4.687,4.688,4.687h19.963
			v-0.003c0.768,1.484,1.682,2.881,2.722,4.172H290.23c-2.589,0-4.688,2.099-4.688,4.687c0,2.589,2.099,4.688,4.688,4.688h42.214
			L332.41,193.081z M344.54,162.516c-1.823,1.838-4.792,1.847-6.628,0.023c-1.474-1.465-3.43-2.271-5.508-2.271
			c-4.308,0-7.813,3.505-7.813,7.811c0,2.589-2.099,4.689-4.687,4.689c-2.589,0-4.688-2.099-4.688-4.689
			c0-9.478,7.71-17.186,17.189-17.186c4.57,0,8.873,1.775,12.114,4.995C346.356,157.712,346.365,160.68,344.54,162.516z
			 M323.037,168.078c0-1.726-1.401-3.125-3.125-3.125c-1.726,0-3.126,1.399-3.126,3.125c0,1.727,1.4,3.124,3.126,3.124
			C321.637,171.202,323.037,169.805,323.037,168.078z M275.556,147.667c0-1.295-1.049-2.343-2.343-2.343
			c-1.296,0-2.343,1.049-2.343,2.343c0,1.294,1.048,2.343,2.343,2.343C274.507,150.01,275.556,148.961,275.556,147.667
			 M275.556,161.177c0-1.295-1.049-2.343-2.343-2.343c-1.296,0-2.343,1.049-2.343,2.343c0,1.295,1.048,2.343,2.343,2.343
			C274.507,163.52,275.556,162.471,275.556,161.177 M275.556,174.686c0-1.296-1.049-2.343-2.343-2.343
			c-1.296,0-2.343,1.048-2.343,2.343c0,1.295,1.048,2.343,2.343,2.343C274.507,177.03,275.556,175.981,275.556,174.686
			 M275.556,188.196c0-1.295-1.049-2.343-2.343-2.343c-1.296,0-2.343,1.049-2.343,2.343c0,1.296,1.048,2.343,2.343,2.343
			C274.507,190.54,275.556,189.492,275.556,188.196"/>
		<g>
			<path fill="#D63023" d="M290,68c0,27.612-22.386,50-50,50c-27.615,0-50-22.388-50-50c0-27.615,22.387-50,50-50
				C267.614,18,290,40.385,290,68z"/>
			
				<path id="rect1227_1_" fill="#FFFFFF" d="
				M217.489,42.026c-1.918,0-3.463,1.544-3.463,3.463V57.61h10.39v-3.463c0-0.959,0.771-1.732,1.732-1.732h27.706
				c0.958,0,1.732,0.773,1.732,1.732v3.463h10.389V45.489c0-1.918-1.545-3.463-3.463-3.463H217.489z M214.026,61.073v13.854h10.39
				V61.073H214.026z M255.584,61.073v13.854h10.389V61.073H255.584z M214.026,78.39v12.122c0,1.917,1.545,3.463,3.463,3.463h45.022
				c1.918,0,3.463-1.545,3.463-3.463V78.39h-10.389v3.462c0,0.959-0.774,1.732-1.732,1.732h-27.706
				c-0.961,0-1.732-0.773-1.732-1.732V78.39H214.026z"/>
		</g>
		<g>
			<g>
				<path fill="#DD4814" d="M125,18c-27.615,0-50,22.383-50,49.997C75,95.611,97.385,118,125,118c27.613,0,50-22.389,50-50.003
					C175,40.383,152.613,18,125,18z"/>
				<path fill="#FFFFFF" d="M100.733,98.915c-0.425,0.427-0.987,0.659-1.59,0.659l0,0c-0.603,0-1.169-0.234-1.593-0.662
					c-0.424-0.424-0.66-0.987-0.66-1.59c0-0.6,0.236-1.166,0.66-1.594c0.424-0.424,0.991-0.658,1.593-0.658
					c0.603,0,1.165,0.234,1.59,0.658c0.424,0.424,0.658,0.99,0.658,1.594C101.392,97.925,101.158,98.488,100.733,98.915z"/>
				<path fill="#FFFFFF" d="M110.545,65.291c-0.226-0.721-0.552-1.314-0.968-1.764c-0.416-0.446-0.919-0.784-1.498-0.996
					c-0.579-0.215-1.234-0.324-1.949-0.324c-0.716,0-1.368,0.109-1.935,0.324c-0.566,0.212-1.064,0.55-1.481,0.996
					c-0.413,0.449-0.741,1.043-0.965,1.764c-0.23,0.729-0.346,1.615-0.346,2.645v26.203H96.88V67.531c0-1.34,0.18-2.59,0.539-3.711
					c0.36-1.125,0.925-2.117,1.683-2.955c0.757-0.837,1.723-1.492,2.871-1.953c1.145-0.463,2.534-0.697,4.123-0.697
					c1.59,0,2.989,0.234,4.156,0.697c1.17,0.461,2.15,1.116,2.907,1.953c0.753,0.838,1.326,1.828,1.699,2.955
					c0.367,1.121,0.558,2.371,0.558,3.711v3.613h-4.521v-3.209C110.89,66.909,110.774,66.021,110.545,65.291z"/>
				<path fill="#FFFFFF" d="M129.425,83.658c0,1.348-0.188,2.598-0.56,3.717c-0.37,1.125-0.94,2.117-1.697,2.955
					c-0.757,0.834-1.736,1.492-2.905,1.953c-1.169,0.46-2.569,0.694-4.156,0.694c-1.589,0-2.974-0.234-4.121-0.694
					c-1.151-0.461-2.115-1.119-2.876-1.953c-0.755-0.838-1.319-1.83-1.68-2.955c-0.358-1.121-0.542-2.371-0.542-3.717V72.227h4.523
					v11.035c0,1.024,0.117,1.914,0.346,2.641c0.228,0.725,0.552,1.317,0.966,1.763c0.419,0.449,0.915,0.784,1.48,0.999
					c0.569,0.215,1.219,0.324,1.937,0.324c0.713,0,1.372-0.112,1.95-0.327c0.575-0.212,1.079-0.55,1.495-0.996
					c0.417-0.449,0.744-1.04,0.97-1.761c0.23-0.73,0.346-1.621,0.346-2.643V72.227h4.522v11.432H129.425z"/>
				<path fill="#FFFFFF" d="M124.912,68.93c0-1.245,1.008-2.252,2.25-2.252c1.241,0,2.252,1.007,2.252,2.252
					c0,1.238-1.011,2.248-2.252,2.248C125.919,71.178,124.912,70.168,124.912,68.93z"/>
				<path fill="#FFFFFF" d="M138.565,37.012c-0.226-0.719-0.552-1.316-0.968-1.763c-0.416-0.449-0.92-0.784-1.495-0.996
					c-0.58-0.218-1.235-0.323-1.952-0.323c-0.714,0-1.365,0.105-1.935,0.32c-0.565,0.215-1.064,0.552-1.479,0.999
					c-0.415,0.446-0.741,1.04-0.967,1.763c-0.23,0.729-0.345,1.613-0.345,2.643v26.203h-4.524V39.255
					c0-1.341,0.181-2.591,0.541-3.713c0.36-1.128,0.925-2.12,1.682-2.958c0.755-0.834,1.722-1.49,2.871-1.953
					c1.148-0.46,2.535-0.697,4.122-0.697c1.587,0,2.985,0.237,4.154,0.697c1.173,0.463,2.149,1.119,2.905,1.953
					c0.759,0.838,1.329,1.83,1.701,2.955c0.369,1.125,0.556,2.375,0.556,3.716v3.608h-4.523v-3.209
					C138.911,38.63,138.793,37.74,138.565,37.012z"/>
				<path fill="#FFFFFF" d="M157.446,55.38c0,1.345-0.188,2.595-0.56,3.714c-0.371,1.127-0.94,2.121-1.695,2.955
					c-0.761,0.834-1.737,1.492-2.906,1.955c-1.172,0.458-2.569,0.692-4.156,0.692c-1.591,0-2.978-0.234-4.126-0.692
					c-1.147-0.463-2.114-1.121-2.872-1.955c-0.755-0.834-1.322-1.828-1.683-2.955c-0.355-1.121-0.538-2.371-0.538-3.714V43.949
					h4.522V54.98c0,1.024,0.116,1.914,0.345,2.643c0.226,0.723,0.551,1.314,0.969,1.764c0.414,0.446,0.915,0.781,1.479,0.996
					c0.568,0.215,1.218,0.326,1.934,0.326c0.717,0,1.374-0.111,1.953-0.326c0.576-0.215,1.078-0.55,1.494-0.996
					c0.415-0.449,0.743-1.041,0.97-1.764c0.228-0.729,0.346-1.618,0.346-2.643V43.949h4.52V55.38H157.446z"/>
			</g>
		</g>
		<path fill="#333333" d="M223.44,159.192c2.102-2.102,4.764-3.292,7.507-3.585c-2.309-9.021-7.085-17.059-13.552-23.371
			c-1.624,2.207-3.973,3.902-6.823,4.666c-6.669,1.787-13.522-2.17-15.306-8.837c-0.763-2.848-0.474-5.726,0.623-8.232
			c-4.264-1.185-8.748-1.833-13.384-1.833c-4.705,0-9.259,0.667-13.578,1.887c1.076,2.494,1.357,5.351,0.6,8.177
			c-1.786,6.667-8.639,10.624-15.305,8.837c-2.801-0.751-5.114-2.402-6.734-4.55c-6.412,6.302-11.143,14.308-13.434,23.284
			c2.665,0.329,5.248,1.505,7.296,3.552c4.881,4.882,4.883,12.796,0.003,17.68c-2.044,2.044-4.621,3.219-7.286,3.551
			c2.298,8.964,7.034,16.959,13.448,23.25c1.617-2.131,3.918-3.768,6.704-4.513c6.668-1.789,13.524,2.17,15.31,8.837
			c0.753,2.807,0.478,5.644-0.582,8.123c4.315,1.218,8.859,1.883,13.558,1.883c4.629,0,9.107-0.643,13.363-1.826
			c-1.077-2.494-1.359-5.352-0.603-8.178c1.784-6.667,8.64-10.627,15.31-8.84c2.838,0.759,5.176,2.444,6.797,4.634
			c6.468-6.302,11.247-14.33,13.563-23.339c-2.738-0.296-5.396-1.487-7.493-3.583C218.558,171.984,218.558,164.072,223.44,159.192z
			 M191.338,176.842c-4.881,4.88-12.794,4.876-17.677-0.004c-4.88-4.881-4.88-12.795,0-17.676
			c4.885-4.881,12.796-4.884,17.677-0.002C196.219,164.041,196.219,171.959,191.338,176.842z"/>
	</g>
</g>
<g id="Grid" display="none">
</g>
<g id="Labels">
</g>
</svg>
