<?xml version="1.0" encoding="utf-8"?>
<!-- Generator: Adobe Illustrator 17.0.2, SVG Export Plug-In . SVG Version: 6.00 Build 0)  -->
<!DOCTYPE svg PUBLIC "-//W3C//DTD SVG 1.1//EN" "http://www.w3.org/Graphics/SVG/1.1/DTD/svg11.dtd">
<svg version="1.1" id="Layer_1" xmlns="http://www.w3.org/2000/svg" xmlns:xlink="http://www.w3.org/1999/xlink" x="0px" y="0px"
	 width="442px" height="436px" viewBox="0 0 442 436" enable-background="new 0 0 442 436" xml:space="preserve">
<g id="BK">
</g>
<path fill="#772953" d="M325.955,143.657c11.449,6.75,24.796,10.62,39.044,10.62c42.527,0,77.001-34.474,77.001-77.002
	c0-42.525-34.474-77-77.001-77c-42.525,0-76.999,34.475-76.999,77c0,14.026,3.751,27.176,10.301,38.5l0.017-0.007L288,154.277
	l38.51-10.317L325.955,143.657z"/>
<path fill="#FFFFFF" d="M362.35,54.674c-2.398,0-4.666,0.3-6.799,0.9c-2.135,0.6-4.5,1.567-7.1,2.9l-4.201-11.3
	c2.601-1.666,5.666-2.95,9.201-3.85c3.531-0.9,7-1.35,10.398-1.35c4.266,0,7.783,0.567,10.551,1.7
	c2.766,1.135,4.949,2.567,6.551,4.3c1.6,1.734,2.715,3.634,3.35,5.7c0.633,2.067,0.949,4.035,0.949,5.9
	c0,1.867-0.283,3.584-0.85,5.15c-0.566,1.567-1.285,3.017-2.15,4.35c-0.867,1.334-1.867,2.6-3,3.8c-1.135,1.2-2.234,2.334-3.299,3.4
	c-0.801,0.8-1.635,1.65-2.5,2.55c-0.867,0.9-1.65,1.85-2.352,2.85c-0.699,1-1.283,2.05-1.75,3.15c-0.467,1.1-0.699,2.217-0.699,3.35
	c0,0.268,0,0.667,0,1.2c0,0.534,0.033,1,0.1,1.4h-13.199c-0.135-0.666-0.217-1.416-0.25-2.25c-0.035-0.833-0.051-1.55-0.051-2.15
	c0-1.866,0.232-3.55,0.701-5.05c0.465-1.5,1.082-2.9,1.85-4.2c0.766-1.3,1.65-2.516,2.65-3.65c1-1.133,2.031-2.233,3.1-3.3
	c1.533-1.533,2.932-3.05,4.199-4.55c1.266-1.5,1.9-3.216,1.9-5.15c0-1.6-0.617-2.966-1.85-4.1
	C366.566,55.241,364.75,54.674,362.35,54.674z M371.65,104.974c0,2.935-0.949,5.2-2.85,6.801c-1.9,1.6-4.051,2.399-6.451,2.399
	c-2.398,0-4.549-0.8-6.449-2.399c-1.9-1.601-2.85-3.866-2.85-6.801c0-2.933,0.949-5.2,2.85-6.8c1.9-1.6,4.051-2.4,6.449-2.4
	c2.4,0,4.551,0.8,6.451,2.4C370.701,99.774,371.65,102.041,371.65,104.974z"/>
<path fill="#AEA79F" d="M365,270.728v30.448c0,9.605-7.784,17.392-17.393,17.392c-9.596,0-17.4-7.786-17.4-17.392
	c0-5.714-3.693-10.565-8.811-12.334c-3.097,46.627-29.046,89.049-69.268,112.286c2.671,0.005,5.172,0.616,7.417,1.699
	c5.944,2.754,10.062,8.763,10.08,15.748c0.014,9.019-6.846,16.467-15.67,17.337h-0.015c-0.455,0.041-0.931,0.078-1.396,0.083h-0.017
	H252.5h-0.029c-0.062,0-0.104,0-0.16,0.005h-0.156h-0.09H113.156h-0.254c-9.589-0.055-17.324-7.838-17.311-17.425
	c0.025-9.595,7.807-17.359,17.39-17.359h0.079c-0.01-0.008-0.035-0.097-0.057-0.125c-40.218-23.311-66.127-65.742-69.219-112.32
	c-5.223,1.715-9.003,6.629-9.003,12.405c0,9.605-7.792,17.392-17.393,17.392C7.781,318.567,0,310.781,0,301.176v-30.448
	c0-4.614,1.83-9.041,5.092-12.3c3.262-3.264,7.687-5.097,12.297-5.097h0.003l28.541,0.014
	c12.237-64.304,68.855-113.07,136.657-113.07c67.804,0,124.438,48.766,136.68,113.07l28.331-0.014h0.007
	c4.611,0,9.027,1.833,12.298,5.097C363.17,261.687,365,266.114,365,270.728z M191.231,270.508c0-4.806-3.892-8.697-8.673-8.697
	c-4.809,0-8.706,3.891-8.706,8.697v26.09c0,4.792,3.898,8.689,8.706,8.689c4.781,0,8.673-3.897,8.673-8.689V270.508z
	 M269.432,209.77c0-27.615-23.346-49.999-52.154-49.999c-13.352,0-25.52,4.807-34.746,12.711
	c-9.225-7.905-21.402-12.711-34.738-12.711c-28.818,0-52.187,22.384-52.187,49.999c0,27.608,23.368,50.002,52.187,50.002
	c13.336,0,25.514-4.814,34.738-12.718c9.227,7.904,21.394,12.718,34.746,12.718C246.086,259.772,269.432,237.379,269.432,209.77z
	 M225.926,209.818c0,4.796-3.893,8.701-8.686,8.701c-4.809,0-8.706-3.905-8.706-8.701c0-4.802,3.897-8.688,8.706-8.688
	C222.033,201.13,225.926,205.016,225.926,209.818z M147.748,201.13c-4.807,0-8.697,3.886-8.697,8.688
	c0,4.796,3.891,8.701,8.697,8.701c4.801,0,8.689-3.905,8.689-8.701C156.438,205.016,152.549,201.13,147.748,201.13z"/>
<g id="Grid" display="none">
	<g id="Grid_1_" display="inline">
	</g>
</g>
<g id="Labels">
</g>
</svg>
