<?xml version="1.0" encoding="utf-8"?>
<!-- Generator: Adobe Illustrator 17.0.2, SVG Export Plug-In . SVG Version: 6.00 Build 0)  -->
<!DOCTYPE svg PUBLIC "-//W3C//DTD SVG 1.1//EN" "http://www.w3.org/Graphics/SVG/1.1/DTD/svg11.dtd">
<svg version="1.1" id="Layer_1" xmlns="http://www.w3.org/2000/svg" xmlns:xlink="http://www.w3.org/1999/xlink" x="0px" y="0px"
	 width="16px" height="16px" viewBox="0 0 16 16" enable-background="new 0 0 16 16" xml:space="preserve">
<path id="path3759" fill="#AEA79F" d="M6.385,1.067v1.6c0,0.86-0.725,1.585-1.585,1.585S3.215,3.526,3.215,2.667v-1.52
	c-1.871,0.192-2.148,0.849-2.148,3.12v7.467c0,3.2,0.533,3.2,5.333,3.2h3.2c4.8,0,5.333,0,5.333-3.2V4.267
	c0-2.271-0.277-2.928-2.149-3.119v1.519c0,0.86-0.725,1.585-1.585,1.585S9.614,3.527,9.614,2.667v-1.6c-0.006,0-0.01,0-0.015,0H6.4
	C6.394,1.067,6.39,1.067,6.385,1.067z M6.4,5.333h3.2c4.267,0,4.267,0,4.267,2.133v4.267c0,2.133,0,2.133-4.267,2.133H6.4
	c-4.267,0-4.267,0-4.267-2.133V7.467C2.133,5.333,2.133,5.333,6.4,5.333z"/>
<path id="rect4114" fill="#AEA79F" d="M4.8,0L4.8,0c0.295,0,0.533,0.239,0.533,0.533v2.133C5.333,2.961,5.095,3.2,4.8,3.2l0,0
	c-0.295,0-0.533-0.239-0.533-0.533V0.533C4.267,0.239,4.505,0,4.8,0z"/>
<path id="rect4122" fill="#AEA79F" d="M11.2,0L11.2,0c0.295,0,0.533,0.239,0.533,0.533v2.133c0,0.295-0.239,0.533-0.533,0.533l0,0
	c-0.295,0-0.533-0.239-0.533-0.533V0.533C10.667,0.239,10.905,0,11.2,0z"/>
<path id="path4097" fill="#AEA79F" d="M5.926,6.934v0.002c-0.32,0-0.622,0.062-0.904,0.185C4.747,7.239,4.505,7.397,4.297,7.595
	l-0.063,0.06l0.544,0.771l0.084-0.084c0.028-0.028,0.075-0.069,0.14-0.119l0.002-0.002l0.002-0.002
	c0.061-0.052,0.132-0.103,0.213-0.153c0.083-0.048,0.178-0.09,0.286-0.126c0.102-0.034,0.214-0.051,0.337-0.051
	c0.186,0,0.335,0.046,0.458,0.136C6.411,8.104,6.471,8.24,6.471,8.467c0,0.1-0.021,0.196-0.063,0.293
	C6.365,8.855,6.306,8.952,6.23,9.05l0,0C6.157,9.145,6.07,9.244,5.969,9.345C5.866,9.448,5.757,9.554,5.644,9.662l0,0
	C5.497,9.805,5.35,9.949,5.203,10.096c-0.15,0.15-0.286,0.311-0.407,0.481l0,0c-0.123,0.172-0.224,0.359-0.302,0.56l0,0
	c-0.076,0.201-0.113,0.422-0.113,0.659v0.128c0,0.055,0.003,0.104,0.008,0.147L4.4,12.159h3.315v-0.924H5.58
	c0.013-0.026,0.01-0.038,0.032-0.07l0.001-0.002l0,0c0.059-0.09,0.129-0.184,0.212-0.28c0.083-0.097,0.172-0.195,0.264-0.292
	l0.002-0.002c0.094-0.098,0.177-0.182,0.251-0.252l0,0h0.001C6.486,10.2,6.628,10.06,6.77,9.918l0,0h0.001
	c0.145-0.15,0.273-0.302,0.385-0.458l0,0c0.117-0.161,0.213-0.325,0.287-0.493l0,0C7.52,8.79,7.558,8.608,7.558,8.424
	c0-0.449-0.134-0.819-0.406-1.085C6.882,7.064,6.466,6.934,5.926,6.934L5.926,6.934z M8.882,7.047v0.002L8.878,7.144
	c-0.019,0.41-0.043,0.821-0.071,1.231C8.779,8.78,8.738,9.209,8.687,9.661L8.674,9.773h0.112c0.389,0,0.708,0.022,0.955,0.063l0,0
	c0.253,0.041,0.448,0.103,0.584,0.18l0,0h0.001c0.143,0.078,0.234,0.168,0.284,0.269c0.054,0.108,0.081,0.231,0.081,0.373
	c0,0.091-0.016,0.177-0.049,0.259c-0.031,0.074-0.081,0.141-0.156,0.203h-0.001h-0.001c-0.067,0.059-0.16,0.109-0.281,0.149
	c-0.12,0.034-0.269,0.053-0.446,0.053c-0.263,0-0.484-0.026-0.661-0.074c-0.18-0.055-0.318-0.106-0.409-0.15l-0.113-0.054
	l-0.208,0.922l0.07,0.035c0.057,0.028,0.131,0.055,0.229,0.085c0.098,0.029,0.208,0.056,0.328,0.08
	c0.125,0.029,0.254,0.053,0.388,0.072c0.137,0.019,0.271,0.029,0.404,0.029c0.325,0,0.612-0.038,0.86-0.118h0.001h0.001
	c0.246-0.084,0.455-0.199,0.623-0.346c0.167-0.147,0.293-0.324,0.374-0.527c0.081-0.202,0.121-0.42,0.121-0.654
	c0-0.51-0.182-0.928-0.539-1.225C10.89,9.11,10.38,8.958,9.727,8.908C9.733,8.86,9.738,8.818,9.744,8.76
	c0.01-0.095,0.017-0.195,0.022-0.299V8.457c0.009-0.102,0.016-0.202,0.021-0.3V8.152c0.006-0.068,0.01-0.123,0.014-0.181h1.787
	V7.046L8.882,7.047L8.882,7.047z"/>
</svg>
