<?xml version="1.0" encoding="utf-8"?>
<!-- Generator: Adobe Illustrator 17.0.2, SVG Export Plug-In . SVG Version: 6.00 Build 0)  -->
<!DOCTYPE svg PUBLIC "-//W3C//DTD SVG 1.1//EN" "http://www.w3.org/Graphics/SVG/1.1/DTD/svg11.dtd">
<svg version="1.1" id="Layer_1" xmlns="http://www.w3.org/2000/svg" xmlns:xlink="http://www.w3.org/1999/xlink" x="0px" y="0px"
	 width="16px" height="16px" viewBox="0 0 16 16" enable-background="new 0 0 16 16" xml:space="preserve">
<path fill="#AEA79F" d="M8,0C5.349,0,3.2,2.149,3.2,4.8c0,0.1,0.005,0.196,0.011,0.294c0.002,0.044,0.002,0.088,0.006,0.133
	C3.22,5.268,3.229,5.31,3.233,5.35C3.595,9.219,7.453,16,8,16s4.405-6.781,4.767-10.65c0.004-0.041,0.014-0.082,0.017-0.122
	c0.004-0.044,0.003-0.089,0.006-0.133c0.004-0.1,0.01-0.2,0.01-0.295C12.8,2.149,10.651,0,8,0z M8,3.2c0.884,0,1.6,0.716,1.6,1.6
	S8.884,6.4,8,6.4S6.4,5.684,6.4,4.8S7.116,3.2,8,3.2z"/>
</svg>
