<?xml version="1.0" encoding="utf-8"?>
<!-- Generator: Adobe Illustrator 17.0.2, SVG Export Plug-In . SVG Version: 6.00 Build 0)  -->
<!DOCTYPE svg PUBLIC "-//W3C//DTD SVG 1.1//EN" "http://www.w3.org/Graphics/SVG/1.1/DTD/svg11.dtd">
<svg version="1.1" id="Layer_1" xmlns="http://www.w3.org/2000/svg" xmlns:xlink="http://www.w3.org/1999/xlink" x="0px" y="0px"
	 width="12px" height="12px" viewBox="0 0 12 12" enable-background="new 0 0 12 12" xml:space="preserve">
<path fill="#DD4814" d="M7.634,7.099c0.622-0.353,1.263-0.751,1.922-1.195c0.659-0.444,1.308-0.92,1.945-1.428
	C11.672,4.34,11.838,4.203,12,4.066h-1.85C9.785,4.345,9.406,4.618,9.013,4.884C8.556,5.195,8.089,5.486,7.61,5.759
	C7.133,6.032,6.457,6.367,6,6.581C5.543,6.367,4.868,6.032,4.39,5.76C3.912,5.487,3.444,5.196,2.987,4.885
	C2.594,4.619,2.216,4.346,1.85,4.067H0C0.162,4.204,0.328,4.34,0.499,4.476C1.137,4.984,1.785,5.46,2.445,5.904
	c0.659,0.444,1.3,0.842,1.922,1.196C4.987,7.452,5.532,7.73,6,7.934C6.468,7.73,7.012,7.452,7.634,7.099"/>
</svg>
