<?xml version="1.0" encoding="utf-8"?>
<!-- Generator: Adobe Illustrator 17.0.2, SVG Export Plug-In . SVG Version: 6.00 Build 0)  -->
<!DOCTYPE svg PUBLIC "-//W3C//DTD SVG 1.1//EN" "http://www.w3.org/Graphics/SVG/1.1/DTD/svg11.dtd">
<svg version="1.1" xmlns="http://www.w3.org/2000/svg" xmlns:xlink="http://www.w3.org/1999/xlink" x="0px" y="0px" width="24px"
	 height="24px" viewBox="0 0 24 24" enable-background="new 0 0 24 24" xml:space="preserve">
<g id="BK">
</g>
<g id="Comp">
	<path fill="#DD4814" d="M4.223,13.621c-0.321-0.261-0.79-0.213-1.049,0.105c-0.062,0.076-0.108,0.164-0.135,0.257l-3,9.033
		c-0.132,0.389,0.079,0.814,0.469,0.947c0.156,0.052,0.323,0.052,0.478,0.002l9.033-3c0.394-0.119,0.615-0.536,0.494-0.93
		c-0.037-0.121-0.103-0.23-0.194-0.318l-0.205-0.205l-6.174,2.069l-1.516-1.516l2.069-6.174l-0.207-0.208
		C4.266,13.66,4.246,13.64,4.223,13.621L4.223,13.621z"/>
	<path fill="#DD4814" d="M20.345,1.604c-2.163-2.093-2.827-2.195-5.037,0.016L3.181,13.746l1.011,1.011
		c0.837-0.837,1.854-1.176,2.274-0.758c0.418,0.418,0.079,1.437-0.758,2.274c0.837-0.837,1.969-1.063,2.527-0.505
		c0.558,0.558,0.332,1.689-0.505,2.527c0.837-0.837,1.854-1.176,2.274-0.758c0.418,0.418,0.079,1.437-0.758,2.274l1.011,1.011
		L22.382,8.694c2.527-2.527,2.021-3.032-1.011-6.064C20.993,2.251,20.655,1.903,20.345,1.604L20.345,1.604z"/>
</g>
<g id="Grid" display="none">
	<g id="Grid_1_" display="inline">
	</g>
</g>
<g id="Labels">
</g>
</svg>
