<?xml version="1.0" encoding="utf-8"?>
<!-- Generator: Adobe Illustrator 17.0.2, SVG Export Plug-In . SVG Version: 6.00 Build 0)  -->
<!DOCTYPE svg PUBLIC "-//W3C//DTD SVG 1.1//EN" "http://www.w3.org/Graphics/SVG/1.1/DTD/svg11.dtd">
<svg version="1.1" id="Layer_1" xmlns="http://www.w3.org/2000/svg" xmlns:xlink="http://www.w3.org/1999/xlink" x="0px" y="0px"
	 width="12px" height="12px" viewBox="0 0 12 12" enable-background="new 0 0 12 12" xml:space="preserve">
<path fill="#DD4814" d="M4.366,4.901C3.744,5.254,3.103,5.652,2.444,6.096C1.785,6.54,1.136,7.016,0.499,7.524
	C0.328,7.66,0.162,7.797,0,7.934h1.85c0.365-0.279,0.744-0.552,1.137-0.818C3.444,6.805,3.911,6.514,4.39,6.241
	C4.867,5.968,5.543,5.633,6,5.419C6.457,5.633,7.132,5.968,7.61,6.24c0.478,0.273,0.946,0.564,1.403,0.875
	c0.393,0.266,0.771,0.539,1.137,0.818H12c-0.162-0.137-0.328-0.273-0.499-0.409c-0.638-0.508-1.286-0.984-1.946-1.428
	C8.896,5.652,8.255,5.254,7.633,4.9C7.013,4.548,6.468,4.27,6,4.066C5.532,4.27,4.988,4.548,4.366,4.901"/>
</svg>
