<?xml version="1.0" encoding="utf-8"?>
<!-- Generator: Adobe Illustrator 17.0.2, SVG Export Plug-In . SVG Version: 6.00 Build 0)  -->
<!DOCTYPE svg PUBLIC "-//W3C//DTD SVG 1.1//EN" "http://www.w3.org/Graphics/SVG/1.1/DTD/svg11.dtd">
<svg version="1.1" xmlns="http://www.w3.org/2000/svg" xmlns:xlink="http://www.w3.org/1999/xlink" x="0px" y="0px" width="110px"
	 height="110px" viewBox="0 0 110 110" enable-background="new 0 0 110 110" xml:space="preserve">
<g id="BK">
</g>
<g id="Comp">
	<g>
		<path fill="#DD4814" d="M40.984,37.83c0,1.898-1.539,3.438-3.439,3.438c-1.897,0-3.435-1.541-3.435-3.438
			c0-1.9,1.539-3.437,3.435-3.437C39.445,34.392,40.984,35.931,40.984,37.83"/>
		<path fill="#DD4814" d="M51.309,0c-6.513,0-12.765,1.141-18.57,3.231c21.9,7.255,37.745,27.924,37.745,52.227
			c0,0.129-0.005,0.259-0.012,0.391c-0.195,3.622-3.196,6.499-6.865,6.499h-17.19v13.347H44.42c-1.9,0-3.438,1.539-3.438,3.438
			c0,1.898,1.539,3.438,3.438,3.438h1.998v14.56c0,2.452-1.307,4.721-3.431,5.951c-2.855,1.652-5.851,3.032-8.941,4.138
			C39.48,109.02,45.285,110,51.309,110c30.329,0,55.004-24.673,55.004-54.999C106.313,24.673,81.639,0,51.309,0z M58.209,82.559
			c-1.901,0-3.436-1.539-3.436-3.436c0-1.9,1.535-3.438,3.436-3.438c1.897,0,3.437,1.539,3.437,3.438
			C61.646,81.02,60.105,82.559,58.209,82.559z M71.94,82.559c-1.9,0-3.436-1.539-3.436-3.436c0-1.9,1.537-3.438,3.436-3.438
			s3.438,1.539,3.438,3.438C75.378,81.02,73.84,82.559,71.94,82.559z M85.77,82.559c-1.899,0-3.436-1.539-3.436-3.436
			c0-1.9,1.538-3.438,3.436-3.438c1.9,0,3.438,1.539,3.438,3.438C89.208,81.02,87.67,82.559,85.77,82.559z"/>
		<path fill="#DD4814" d="M37.555,27.513c5.687,0,10.313,4.627,10.313,10.312c0,5.685-4.626,10.312-10.313,10.312
			c-5.685,0-10.313-4.626-10.313-10.312S31.87,27.513,37.555,27.513 M20.367,37.826c0,9.476,7.711,17.186,17.188,17.186
			s17.19-7.71,17.19-17.186c0-9.477-7.712-17.188-17.186-17.188H8.402c-1.738,2.164-3.316,4.463-4.715,6.875h20.126
			C21.652,30.387,20.367,33.959,20.367,37.826"/>
	</g>
</g>
<g id="Grid" display="none">
	<g id="Grid_1_" display="inline">
	</g>
</g>
<g id="Labels">
</g>
</svg>
