<?xml version="1.0" encoding="utf-8"?>
<!-- Generator: Adobe Illustrator 17.0.2, SVG Export Plug-In . SVG Version: 6.00 Build 0)  -->
<!DOCTYPE svg PUBLIC "-//W3C//DTD SVG 1.1//EN" "http://www.w3.org/Graphics/SVG/1.1/DTD/svg11.dtd">
<svg version="1.1" xmlns="http://www.w3.org/2000/svg" xmlns:xlink="http://www.w3.org/1999/xlink" x="0px" y="0px" width="110px"
	 height="110px" viewBox="0 0 110 110" enable-background="new 0 0 110 110" xml:space="preserve">
<g id="BK">
</g>
<g id="Comp">
	<path fill="#DD4814" d="M55,0c-30.377,0-55,24.624-55,55s24.624,55,55,55c30.375,0,54.999-24.625,54.999-55S85.375,0,55,0z
		 M55.388,86.817v0.004c0-0.001-0.001-0.001-0.002-0.002c0,0.001-0.001,0.001-0.002,0.002v-0.004
		c-11.319-11.316-29.667-11.312-40.982,0.004V27.077c11.317-11.318,29.665-11.319,40.985-0.002c2.067-2.067,4.371-3.752,6.823-5.065
		v40.927c0,2.829,2.293,5.122,5.122,5.122c2.829,0,5.122-2.293,5.122-5.122V18.798c8.512-1.007,17.385,1.747,23.917,8.279
		l0.001,59.743C85.052,75.502,66.707,75.504,55.388,86.817z"/>
</g>
<g id="Grid" display="none">
	<g id="Grid_1_" display="inline">
	</g>
</g>
<g id="Labels">
</g>
</svg>
