<?xml version="1.0" encoding="utf-8"?>
<!-- Generator: Adobe Illustrator 17.0.2, SVG Export Plug-In . SVG Version: 6.00 Build 0)  -->
<!DOCTYPE svg PUBLIC "-//W3C//DTD SVG 1.1//EN" "http://www.w3.org/Graphics/SVG/1.1/DTD/svg11.dtd">
<svg version="1.1" xmlns="http://www.w3.org/2000/svg" xmlns:xlink="http://www.w3.org/1999/xlink" x="0px" y="0px" width="110px"
	 height="110px" viewBox="0 0 110 110" enable-background="new 0 0 110 110" xml:space="preserve">
<g id="BK">
</g>
<g id="Comp">
	<path fill="#DD4814" d="M84.525,101.427C75.79,107,65.645,110,55.035,110c-10.629,0-20.789-3.009-29.534-8.598
		c1.255-1.273,1.987-3.004,1.987-4.838V82.383h-3.484c-1.902,0-3.445-1.543-3.445-3.445c0-1.902,1.543-3.445,3.445-3.445h3.484
		V61.705h17.226c3.692,0,6.706-2.904,6.882-6.553c0.007-0.117,0.01-0.236,0.01-0.352c0-19.541-10.227-36.726-25.601-46.519
		C34.635,2.895,44.61,0,55.035,0C65.446,0,75.408,2.887,84.03,8.259c-15.391,9.789-25.633,26.986-25.633,46.54
		c0,0.115,0.003,0.233,0.01,0.35c0.175,3.65,3.189,6.555,6.882,6.555h17.227v13.788h3.484c1.902,0,3.445,1.543,3.445,3.445
		c0,1.902-1.543,3.445-3.445,3.445h-3.484v14.181C82.514,98.411,83.254,100.152,84.525,101.427z M96.33,37.543
		c0-1.902-1.541-3.447-3.444-3.447c-1.902,0-3.446,1.544-3.446,3.447s1.544,3.443,3.446,3.443
		C94.79,40.986,96.33,39.445,96.33,37.543z M17.114,34.097c-1.902,0-3.444,1.544-3.444,3.447s1.542,3.443,3.444,3.443
		s3.447-1.541,3.447-3.443S19.016,34.097,17.114,34.097z"/>
</g>
<g id="Grid" display="none">
	<g id="Grid_1_" display="inline">
	</g>
</g>
<g id="Labels">
</g>
</svg>
