<?xml version="1.0" encoding="utf-8"?>
<!-- Generator: Adobe Illustrator 17.0.2, SVG Export Plug-In . SVG Version: 6.00 Build 0)  -->
<!DOCTYPE svg PUBLIC "-//W3C//DTD SVG 1.1//EN" "http://www.w3.org/Graphics/SVG/1.1/DTD/svg11.dtd">
<svg version="1.1" xmlns="http://www.w3.org/2000/svg" xmlns:xlink="http://www.w3.org/1999/xlink" x="0px" y="0px" width="110px"
	 height="110px" viewBox="0 0 110 110" enable-background="new 0 0 110 110" xml:space="preserve">
<g id="BK">
</g>
<g id="Comp">
	
		<path id="path2995" fill="none" stroke="#DD4814" stroke-width="14.2843" d="
		M85.465,46.812c0,21.435-17.341,38.812-38.733,38.812S8,68.248,8,46.812l0,0C8,25.377,25.341,8,46.733,8
		S85.465,25.377,85.465,46.812L85.465,46.812z"/>
	<path id="path3765" fill="#DD4814" d="M78.193,72.491l-5.782,5.782
		l16.325,16.325l5.782-5.782L78.193,72.491z"/>
	<path id="path3767" fill="#DD4814" d="M86.081,78.162
		c-3.16,0.016-6.214,2.088-7.398,5.02c-1.185,2.932-0.428,6.545,1.832,8.755l11.959,11.972c5.475,5.815,6.656,5.03,11.515,0.171
		c4.859-4.859,5.652-5.699-0.171-11.522L91.859,80.586C90.361,79.049,88.227,78.154,86.081,78.162z"/>
</g>
<g id="Grid" display="none">
	<g id="Grid_1_" display="inline">
	</g>
</g>
<g id="Labels">
</g>
</svg>
