<?xml version="1.0" encoding="utf-8"?>
<!-- Generator: Adobe Illustrator 17.0.2, SVG Export Plug-In . SVG Version: 6.00 Build 0)  -->
<!DOCTYPE svg PUBLIC "-//W3C//DTD SVG 1.1//EN" "http://www.w3.org/Graphics/SVG/1.1/DTD/svg11.dtd">
<svg version="1.1" xmlns="http://www.w3.org/2000/svg" xmlns:xlink="http://www.w3.org/1999/xlink" x="0px" y="0px" width="110px"
	 height="110px" viewBox="0 0 110 110" enable-background="new 0 0 110 110" xml:space="preserve">
<g id="BK">
</g>
<g id="Comp">
	<g>
		<path fill="#DD4814" d="M70.943,78.114c-21.536,0-39.056-17.522-39.056-39.057C31.886,17.52,49.407,0,70.943,0
			S110,17.521,110,39.057C110,60.592,92.478,78.114,70.943,78.114"/>
		<path fill="#DD4814" d="M27.093,41.868c0.895,14.096,8.465,26.409,19.578,33.8l0.001-0.003L19.53,91.337l7.154-26.688L0,57.513
			l27.097-15.645L27.093,41.868z"/>
		<path fill="#DD4814" d="M51.409,78.411c5.888,2.933,12.521,4.586,19.534,4.586c7.008,0,13.641-1.651,19.526-4.582l-0.001-0.003
			v31.439L70.933,90.31l-19.522,19.539V78.408L51.409,78.411z"/>
	</g>
</g>
<g id="Grid" display="none">
	<g id="Grid_1_" display="inline">
	</g>
</g>
<g id="Labels">
</g>
</svg>
