<?xml version="1.0" encoding="utf-8"?>
<!-- Generator: Adobe Illustrator 17.0.2, SVG Export Plug-In . SVG Version: 6.00 Build 0)  -->
<!DOCTYPE svg PUBLIC "-//W3C//DTD SVG 1.1//EN" "http://www.w3.org/Graphics/SVG/1.1/DTD/svg11.dtd">
<svg version="1.1" xmlns="http://www.w3.org/2000/svg" xmlns:xlink="http://www.w3.org/1999/xlink" x="0px" y="0px" width="110px"
	 height="110px" viewBox="0 0 110 110" enable-background="new 0 0 110 110" xml:space="preserve">
<g id="BK">
</g>
<g id="Comp">
	<path fill="#DD4814" d="M110,55.001C110,85.375,85.376,110,55.002,110C24.623,110,0,85.375,0,55.001C0,24.624,24.623,0,55.002,0
		C85.377,0,110,24.624,110,55.001z M17.602,47.655c-4.057,0-7.347,3.288-7.347,7.346c0,4.055,3.29,7.342,7.347,7.342
		c4.056,0,7.342-3.287,7.342-7.342C24.944,50.944,21.658,47.655,17.602,47.655z M70.03,81.031
		c-3.513,2.029-4.715,6.517-2.688,10.028c2.027,3.512,6.516,4.716,10.027,2.687c3.513-2.026,4.717-6.514,2.688-10.027
		C78.033,80.209,73.54,79.005,70.03,81.031z M33.552,55.001c0-7.257,3.604-13.668,9.121-17.551l-5.371-8.992
		c-6.424,4.295-11.205,10.857-13.191,18.543c2.317,1.893,3.804,4.772,3.804,7.999c0,3.226-1.487,6.105-3.804,7.997
		c1.983,7.689,6.763,14.252,13.191,18.545l5.371-8.993C37.156,68.668,33.552,62.258,33.552,55.001z M55.002,33.55
		c11.203,0,20.396,8.592,21.361,19.548l10.464-0.153c-0.516-8.089-4.05-15.351-9.479-20.691c-2.791,1.055-6.016,0.894-8.804-0.713
		c-2.794-1.612-4.544-4.33-5.021-7.281c-2.715-0.749-5.571-1.159-8.524-1.159c-5.076,0-9.875,1.192-14.136,3.302l5.103,9.143
		C48.71,34.268,51.773,33.55,55.002,33.55z M55.002,76.449c-3.229,0-6.292-0.717-9.036-1.995l-5.103,9.143
		c4.261,2.112,9.06,3.304,14.139,3.304c2.951,0,5.807-0.41,8.521-1.161c0.479-2.951,2.229-5.667,5.021-7.281
		c2.79-1.609,6.013-1.768,8.804-0.713c5.429-5.34,8.963-12.602,9.479-20.691l-10.466-0.154
		C75.398,67.86,66.205,76.449,55.002,76.449z M70.028,28.966c3.513,2.028,8.001,0.827,10.028-2.685
		c2.029-3.512,0.826-8.001-2.687-10.031c-3.511-2.026-8-0.822-10.029,2.69C65.316,22.451,66.518,26.94,70.028,28.966z"/>
</g>
<g id="Grid" display="none">
	<g id="Grid_1_" display="inline">
	</g>
</g>
<g id="Labels">
</g>
</svg>
