<?xml version="1.0" encoding="iso-8859-1"?>
<!-- Generator: Adobe Illustrator 17.0.2, SVG Export Plug-In . SVG Version: 6.00 Build 0)  -->
<!DOCTYPE svg PUBLIC "-//W3C//DTD SVG 1.1//EN" "http://www.w3.org/Graphics/SVG/1.1/DTD/svg11.dtd">
<svg version="1.1" id="icon-about-blog-layer" xmlns="http://www.w3.org/2000/svg" xmlns:xlink="http://www.w3.org/1999/xlink"
	 x="0px" y="0px" width="24px" height="24px" viewBox="0 0 24 24" style="enable-background:new 0 0 24 24;" xml:space="preserve">
<g id="icon-about-blog">
	<rect style="opacity:0;fill:#DD4814;" width="24" height="24"/>
	<g id="layer1" transform="translate(0,-962.36223)">
		<g id="g4451" transform="translate(-789,604.3622)">
			<path id="path3004" style="fill:#DD4814;" d="M797,359.6c-7.2,0-8,0-8,4.8v6.4
				c0,4.8,0.8,4.8,8,4.8h8c7.2,0,8,0,8-4.8v-6.4c0-4.8-0.8-4.8-8-4.8H797z M793.8,363.6h14.4v1.6h-14.4V363.6z M793.8,366.8h14.4
				v1.6h-14.4V366.8z M793.8,370h8v1.6h-8V370z"/>
			<path id="path3774" style="fill:#DD4814;" d="M793.8,375.067v5.333
				l5.333-5.333H793.8z"/>
		</g>
	</g>
</g>
</svg>
