<?xml version="1.0" encoding="iso-8859-1"?>
<!-- Generator: Adobe Illustrator 17.0.2, SVG Export Plug-In . SVG Version: 6.00 Build 0)  -->
<!DOCTYPE svg PUBLIC "-//W3C//DTD SVG 1.1//EN" "http://www.w3.org/Graphics/SVG/1.1/DTD/svg11.dtd">
<svg version="1.1" id="icon-about-resources-layer" xmlns="http://www.w3.org/2000/svg" xmlns:xlink="http://www.w3.org/1999/xlink"
	 x="0px" y="0px" width="24px" height="24px" viewBox="0 0 24 24" style="enable-background:new 0 0 24 24;" xml:space="preserve">
<g id="icon-about-resources">
	<rect style="opacity:0;fill:#DD4814;" width="24" height="24"/>
	
		<path id="path3008" style="fill:#DD4814;" d="
		M0.002,9.315c0.12-0.373,7.154-2.11,7.47-2.341c0.316-0.231,4.12-6.397,4.512-6.398c0.391-0.001,4.218,6.152,4.535,6.381
		c0.317,0.229,7.357,1.942,7.479,2.314c0.122,0.372-4.547,5.912-4.668,6.285c-0.12,0.372,0.427,7.597,0.11,7.828
		c-0.316,0.231-7.028-2.498-7.419-2.497c-0.392,0.001-7.093,2.754-7.41,2.524c-0.317-0.229,0.204-7.456,0.082-7.828
		C4.571,15.21-0.118,9.687,0.002,9.315L0.002,9.315z"/>
</g>
</svg>
