<?xml version="1.0" encoding="utf-8"?>
<!-- Generator: Adobe Illustrator 17.0.2, SVG Export Plug-In . SVG Version: 6.00 Build 0)  -->
<!DOCTYPE svg PUBLIC "-//W3C//DTD SVG 1.1//EN" "http://www.w3.org/Graphics/SVG/1.1/DTD/svg11.dtd">
<svg version="1.1" id="Layer_1" xmlns="http://www.w3.org/2000/svg" xmlns:xlink="http://www.w3.org/1999/xlink" x="0px" y="0px"
	 width="32px" height="32px" viewBox="0 0 32 32" enable-background="new 0 0 32 32" xml:space="preserve">
<g id="BK">
</g>
<g id="Comp">
	<path id="path3809_2_" fill="#FFFFFF" d="M16,6.4c-5.289,0-9.6,4.311-9.6,9.6c0,4.169,2.675,7.723,6.4,9.044v-2.3
		C10.275,21.55,8.533,18.989,8.533,16c0-4.136,3.33-7.467,7.467-7.467s7.467,3.33,7.467,7.467c0,2.989-1.741,5.55-4.267,6.744v2.3
		c3.725-1.321,6.4-4.875,6.4-9.044C25.6,10.711,21.289,6.4,16,6.4z"/>
	<path id="path3827_2_" fill="#FFFFFF" d="M14.933,0.005v4.267h2.133V0.005H14.933z M8.922,1.616L7.078,2.682l2.133,3.689
		l1.844-1.067L8.922,1.616z M23.078,1.616l-2.133,3.689l1.844,1.067l2.133-3.689L23.078,1.616z M2.678,7.071L1.611,8.927L5.3,11.06
		l1.067-1.856L2.678,7.071z M29.322,7.071l-3.689,2.133L26.7,11.06l3.689-2.133L29.322,7.071z M0,14.938v2.133h4.267v-2.133H0z
		 M27.733,14.938v2.133H32v-2.133H27.733z M5.3,20.938l-3.689,2.133l1.067,1.856l3.689-2.133L5.3,20.938L5.3,20.938z M26.7,20.938
		l-1.067,1.856l3.689,2.133l1.067-1.856L26.7,20.938z"/>
	<path id="rect3829_2_" fill="#FFFFFF" d="M10.667,21.222V25.6c0,0.593,0.038,1.097,0.211,1.589s0.552,0.961,1.011,1.211
		c0.918,0.501,1.8,0.4,3.044,0.4h2.133c1.244,0,2.126,0.101,3.044-0.4c0.459-0.25,0.838-0.719,1.011-1.211s0.211-0.996,0.211-1.589
		v-4.378c-0.611,0.624-1.335,1.131-2.133,1.511V25.6c0,0.474-0.051,0.769-0.089,0.878c-0.016,0.045-0.013,0.053-0.011,0.056
		c0,0-0.004-0.004-0.011,0c-0.059,0.032-0.778,0.133-2.022,0.133h-2.133c-1.244,0-1.963-0.101-2.022-0.133
		c-0.007-0.004-0.011-0.002-0.011-0.002s0.004-0.008-0.012-0.053c-0.037-0.11-0.088-0.405-0.088-0.879v-2.867
		C12.002,22.354,11.278,21.846,10.667,21.222z"/>
	<path id="path3851-2_2_" fill="#FFFFFF" d="M16.533,22.4l-3.413-7.467h2.591L15.466,9.6l3.414,7.467h-2.627L16.533,22.4z"/>
	<path id="rect3843_2_" fill="#FFFFFF" d="M12.822,29.789c0.07,0.846,0.502,1.144,2.111,1.144h2.133
		c1.609,0,2.041-0.298,2.111-1.144c-0.705,0.106-1.399,0.067-2.111,0.067h-2.133C14.221,29.856,13.527,29.895,12.822,29.789z"/>
</g>
<g id="Grid" display="none">
	<g id="Grid_1_" display="inline">
	</g>
</g>
<g id="Labels">
</g>
</svg>
