<?xml version="1.0" encoding="utf-8"?>
<!-- Generator: Adobe Illustrator 17.0.2, SVG Export Plug-In . SVG Version: 6.00 Build 0)  -->
<!DOCTYPE svg PUBLIC "-//W3C//DTD SVG 1.1//EN" "http://www.w3.org/Graphics/SVG/1.1/DTD/svg11.dtd">
<svg version="1.1" id="Layer_1" xmlns="http://www.w3.org/2000/svg" xmlns:xlink="http://www.w3.org/1999/xlink" x="0px" y="0px"
	 width="32px" height="32px" viewBox="0 0 32 32" enable-background="new 0 0 32 32" xml:space="preserve">
<g id="BK">
</g>
<g id="Comp">
	<g>
		<path fill="#FFFFFF" d="M16,2C8.286,2,2,8.286,2,16s6.286,14,14,14s14-6.286,14-14S23.714,2,16,2z M22,23.25
			c-0.32,0-0.64-0.122-0.884-0.366l-6-6C14.882,16.649,14.75,16.332,14.75,16V7c0-0.69,0.56-1.25,1.25-1.25
			c0.69,0,1.25,0.56,1.25,1.25v8.482l5.634,5.634c0.488,0.488,0.488,1.279,0,1.768C22.64,23.128,22.32,23.25,22,23.25z"/>
	</g>
</g>
<g id="Grid" display="none">
	<g id="Grid_1_" display="inline">
	</g>
</g>
<g id="Labels">
</g>
</svg>
