<?xml version="1.0" encoding="utf-8"?>
<!-- Generator: Adobe Illustrator 17.0.2, SVG Export Plug-In . SVG Version: 6.00 Build 0)  -->
<!DOCTYPE svg PUBLIC "-//W3C//DTD SVG 1.1//EN" "http://www.w3.org/Graphics/SVG/1.1/DTD/svg11.dtd">
<svg version="1.1" id="Layer_1" xmlns="http://www.w3.org/2000/svg" xmlns:xlink="http://www.w3.org/1999/xlink" x="0px" y="0px"
	 width="32px" height="32px" viewBox="0 0 32 32" enable-background="new 0 0 32 32" xml:space="preserve">
<g id="BK">
</g>
<g id="Comp">
	<path fill-rule="evenodd" clip-rule="evenodd" fill="#FFFFFF" d="M25.999,28.001C25.999,30.21,24.211,32,22,32H10.002
		c-2.212,0-4.001-1.79-4.001-3.999V3.999C6.001,1.792,7.791,0,10.002,0H22c2.211,0,3.999,1.792,3.999,3.999V28.001L25.999,28.001z
		 M13.998,24.001c0,1.104-0.894,1.999-2,1.999c-1.103,0-1.997-0.894-1.997-1.999c0-1.104,0.894-2.001,1.997-2.001
		C13.104,22,13.998,22.897,13.998,24.001z M22,12.5c0,0.825-0.675,1.5-1.5,1.5h-9c-0.825,0-1.5-0.675-1.5-1.5l0,0
		c0-0.825,0.675-1.5,1.5-1.5h9C21.325,11,22,11.675,22,12.5L22,12.5z M22,8.5c0,0.825-0.675,1.5-1.5,1.5h-9
		C10.675,10,10,9.325,10,8.5l0,0C10,7.675,10.675,7,11.5,7h9C21.325,7,22,7.675,22,8.5L22,8.5z M22,4.5C22,5.325,21.325,6,20.5,6h-9
		C10.675,6,10,5.325,10,4.5l0,0C10,3.675,10.675,3,11.5,3h9C21.325,3,22,3.675,22,4.5L22,4.5z"/>
</g>
<g id="Grid" display="none">
	<g id="Grid_1_" display="inline">
	</g>
</g>
<g id="Labels">
</g>
</svg>
