<?xml version="1.0" encoding="utf-8"?>
<!-- Generator: Adobe Illustrator 17.0.2, SVG Export Plug-In . SVG Version: 6.00 Build 0)  -->
<!DOCTYPE svg PUBLIC "-//W3C//DTD SVG 1.1//EN" "http://www.w3.org/Graphics/SVG/1.1/DTD/svg11.dtd">
<svg version="1.1" id="Layer_1" xmlns="http://www.w3.org/2000/svg" xmlns:xlink="http://www.w3.org/1999/xlink" x="0px" y="0px"
	 width="32px" height="32px" viewBox="0 0 32 32" enable-background="new 0 0 32 32" xml:space="preserve">
<g id="BK">
</g>
<g id="Comp">
	<path id="path2991_2_" fill="#FFFFFF" d="M20.623,1.068c-2.387,0.009-4.584,2.092-4.561,4.476c-0.047,1.845-0.639,3.91-2.351,5.007
		c-0.011,0.009-0.017,0.02-0.028,0.028c-0.854,0.625-1.837,0.809-2.804,0.839c-0.971,0.03-1.951-0.09-2.833-0.056
		c-0.009,0-0.02,0-0.028,0c-2.131,0.21-3.877,2.227-3.994,4.28c-0.279,2.553,2.048,5.176,4.702,5.007
		c1.772-0.13,3.915-0.226,5.411,1.147c0.01,0.009,0.018,0.019,0.028,0.028c1.585,1.255,1.84,3.304,1.955,5.063
		c0.205,2.86,3.647,4.821,6.289,3.749c0.009-0.01,0.018-0.019,0.028-0.028c2.524-0.854,3.801-4.056,2.55-6.378
		c0-0.009,0-0.018,0-0.028c-0.845-1.721-2.83-2.832-4.759-2.574c-1.858,0.223-4.013-0.027-5.354-1.566
		c-1.64-1.783-1.707-4.467-0.963-6.602c0-0.009,0-0.018,0-0.028c0.821-2.195,3.258-3.431,5.552-3.133
		c1.563,0.188,3.239,0.053,4.363-1.035c0.009-0.01,0.018-0.019,0.028-0.028c2.097-1.675,2.128-5.194,0.085-6.937
		c0-0.009,0-0.019,0-0.028c-0.884-0.809-2.104-1.232-3.314-1.203v0H20.623z"/>
</g>
<g id="Grid" display="none">
	<g id="Grid_1_" display="inline">
	</g>
</g>
<g id="Labels">
</g>
</svg>
