<?xml version="1.0" encoding="utf-8"?>
<!-- Generator: Adobe Illustrator 17.0.2, SVG Export Plug-In . SVG Version: 6.00 Build 0)  -->
<!DOCTYPE svg PUBLIC "-//W3C//DTD SVG 1.1//EN" "http://www.w3.org/Graphics/SVG/1.1/DTD/svg11.dtd">
<svg version="1.1" id="Layer_1" xmlns="http://www.w3.org/2000/svg" xmlns:xlink="http://www.w3.org/1999/xlink" x="0px" y="0px"
	 width="32px" height="32px" viewBox="0 0 32 32" enable-background="new 0 0 32 32" xml:space="preserve">
<g id="BK">
</g>
<g id="Comp">
	<path id="path3008_5_" fill="#FFFFFF" d="M15.979,2c-0.48,0.001-5.144,7.561-5.531,7.844c-0.388,0.282-8.998,2.408-9.146,2.864
		c-0.147,0.457,5.591,7.222,5.74,7.678c0.149,0.456-0.482,9.312-0.094,9.594c0.388,0.281,8.593-3.093,9.073-3.094
		c0.479-0.001,8.706,3.345,9.094,3.062c0.388-0.283-0.282-9.138-0.135-9.594c0.147-0.457,5.868-7.242,5.719-7.698
		c-0.149-0.456-8.768-2.552-9.156-2.833C21.153,9.542,16.459,1.999,15.979,2z"/>
</g>
<g id="Grid" display="none">
	<g id="Grid_1_" display="inline">
	</g>
</g>
<g id="Labels">
</g>
</svg>
