<?xml version="1.0" encoding="utf-8"?>
<!-- Generator: Adobe Illustrator 17.0.2, SVG Export Plug-In . SVG Version: 6.00 Build 0)  -->
<!DOCTYPE svg PUBLIC "-//W3C//DTD SVG 1.1//EN" "http://www.w3.org/Graphics/SVG/1.1/DTD/svg11.dtd">
<svg version="1.1" xmlns="http://www.w3.org/2000/svg" xmlns:xlink="http://www.w3.org/1999/xlink" x="0px" y="0px" width="16px"
	 height="16px" viewBox="0 0 16 16" enable-background="new 0 0 16 16" xml:space="preserve">
<path fill="#808080" d="M5.372,9.628c-3.406,0.172-4.306,1.27-4.306,3.706V14.4c0,1.6,0,1.6,2.133,1.6h9.6
	c2.133,0,2.133,0,2.133-1.6v-1.067c0-2.435-0.898-3.532-4.3-3.706c-0.205,0.25-0.42,0.481-0.65,0.689
	c-0.533,0.481-1.16,0.889-1.978,0.889c-0.818,0-1.444-0.408-1.978-0.889C5.797,10.108,5.578,9.878,5.372,9.628z"/>
<path fill="#808080" d="M8,0C5.333,0,4.267,1.067,4.267,3.733v0.533c0,2.133,2.14,5.867,3.736,5.867s3.73-3.733,3.73-5.867V3.733C11.733,1.067,10.667,0,8,0	L8,0z"/>
</svg>
