<?xml version="1.0" encoding="utf-8"?>
<!-- Generator: Adobe Illustrator 17.0.2, SVG Export Plug-In . SVG Version: 6.00 Build 0)  -->
<!DOCTYPE svg PUBLIC "-//W3C//DTD SVG 1.1//EN" "http://www.w3.org/Graphics/SVG/1.1/DTD/svg11.dtd">
<svg version="1.1" xmlns="http://www.w3.org/2000/svg" xmlns:xlink="http://www.w3.org/1999/xlink" x="0px" y="0px" width="16px"
	 height="16px" viewBox="0 0 16 16" enable-background="new 0 0 16 16" xml:space="preserve">
<path fill="#808080" d="M3.19,9.113C2.988,8.949,2.693,8.979,2.53,9.179
	C2.491,9.227,2.462,9.282,2.445,9.341l-1.888,5.684c-0.083,0.245,0.05,0.512,0.295,0.596c0.098,0.033,0.203,0.033,0.301,0.001
	l5.684-1.888c0.248-0.075,0.387-0.337,0.311-0.585c-0.023-0.076-0.065-0.145-0.122-0.2l-0.129-0.129l-3.885,1.302l-0.954-0.954
	l1.302-3.885L3.23,9.152C3.217,9.138,3.204,9.125,3.19,9.113L3.19,9.113z"/>
<path fill="#808080" d="M13.335,1.551c-1.361-1.317-1.779-1.381-3.17,0.01L2.534,9.192L3.17,9.828
	c0.527-0.527,1.167-0.74,1.431-0.477c0.263,0.263,0.05,0.904-0.477,1.431c0.527-0.527,1.239-0.669,1.59-0.318
	c0.351,0.351,0.209,1.063-0.318,1.59c0.527-0.527,1.167-0.74,1.431-0.477c0.263,0.263,0.05,0.904-0.477,1.431l0.636,0.636
	l7.631-7.631c1.59-1.59,1.272-1.908-0.636-3.816C13.743,1.958,13.53,1.739,13.335,1.551L13.335,1.551z"/>
</svg>
