<?xml version="1.0" encoding="utf-8"?>
<!-- Generator: Adobe Illustrator 17.0.2, SVG Export Plug-In . SVG Version: 6.00 Build 0)  -->
<!DOCTYPE svg PUBLIC "-//W3C//DTD SVG 1.1//EN" "http://www.w3.org/Graphics/SVG/1.1/DTD/svg11.dtd">
<svg version="1.1" xmlns="http://www.w3.org/2000/svg" xmlns:xlink="http://www.w3.org/1999/xlink" x="0px" y="0px" width="24px"
	 height="24px" viewBox="0 0 24 24" enable-background="new 0 0 24 24" xml:space="preserve">
<path fill="none" stroke="#DD4814" stroke-width="3.1425" d="
	M19.061,10.539c0,4.716-3.815,8.539-8.521,8.539s-8.521-3.823-8.521-8.539l0,0C2.019,5.823,5.834,2,10.54,2
	S19.061,5.823,19.061,10.539L19.061,10.539z"/>
<path fill="#DD4814" d="M17.462,16.188L16.19,17.46l3.592,3.592
	l1.272-1.272L17.462,16.188z"/>
<path fill="#DD4814" d="M19.197,17.436
	c-0.695,0.004-1.367,0.459-1.628,1.104c-0.261,0.645-0.094,1.44,0.403,1.926l2.631,2.634c1.205,1.279,1.464,1.107,2.533,0.038
	c1.069-1.069,1.244-1.254-0.038-2.535l-2.631-2.634C20.139,17.631,19.669,17.434,19.197,17.436z"/>
</svg>
