<?xml version="1.0" encoding="utf-8"?>
<!-- Generator: Adobe Illustrator 17.0.2, SVG Export Plug-In . SVG Version: 6.00 Build 0)  -->
<!DOCTYPE svg PUBLIC "-//W3C//DTD SVG 1.1//EN" "http://www.w3.org/Graphics/SVG/1.1/DTD/svg11.dtd">
<svg version="1.1" xmlns="http://www.w3.org/2000/svg" xmlns:xlink="http://www.w3.org/1999/xlink" x="0px" y="0px" width="195px"
	 height="195px" viewBox="0 0 195 195" enable-background="new 0 0 195 195" xml:space="preserve">
<g id="BK">
</g>
<g id="Comp">
	<path fill="#DD4814" d="M97.503,194.998c-26.043,0-50.528-10.143-68.942-28.559C10.143,148.025,0,123.542,0,97.501
		c0-26.043,10.143-50.526,28.561-68.943C46.976,10.142,71.46,0,97.503,0s50.526,10.142,68.942,28.557
		C184.858,46.973,195,71.456,195,97.501c0,26.043-10.142,50.526-28.557,68.94C148.029,184.853,123.546,194.998,97.503,194.998
		L97.503,194.998z M97.503,24.373c-19.532,0-37.896,7.607-51.708,21.418C31.981,59.605,24.373,77.967,24.373,97.499
		c0,19.53,7.608,37.892,21.422,51.704c13.812,13.813,32.176,21.418,51.708,21.418c19.532,0,37.894-7.605,51.706-21.417
		c13.813-13.812,21.418-32.174,21.418-51.706c0-19.534-7.605-37.898-21.418-51.708C135.397,31.98,117.034,24.373,97.503,24.373
		L97.503,24.373z M140.625,63.378c-5.462-5.46-12.723-8.468-20.448-8.468c-7.727,0-14.99,3.01-20.454,8.472
		c-0.817,0.817-1.577,1.675-2.282,2.573c-0.703-0.896-1.464-1.756-2.28-2.571c-5.462-5.464-12.727-8.472-20.452-8.472
		s-14.988,3.008-20.452,8.47c-11.275,11.277-11.275,29.627-0.021,40.881l38.816,39.201c1.144,1.154,2.7,1.804,4.325,1.804
		c0.002,0,0.003,0,0.005,0c1.623,0,3.182-0.647,4.324-1.799l38.916-39.186C151.902,93.005,151.902,74.655,140.625,63.378z"/>
</g>
<g id="Grid" display="none">
	<g id="Grid_1_" display="inline">
	</g>
</g>
<g id="Labels">
</g>
</svg>
