<?xml version="1.0" encoding="utf-8"?>
<!-- Generator: Adobe Illustrator 17.0.2, SVG Export Plug-In . SVG Version: 6.00 Build 0)  -->
<!DOCTYPE svg PUBLIC "-//W3C//DTD SVG 1.1//EN" "http://www.w3.org/Graphics/SVG/1.1/DTD/svg11.dtd">
<svg version="1.1" xmlns="http://www.w3.org/2000/svg" xmlns:xlink="http://www.w3.org/1999/xlink" x="0px" y="0px" width="381px"
	 height="269px" viewBox="0 0 381 269" enable-background="new 0 0 381 269" xml:space="preserve">
<g id="BK">
</g>
<g id="Comp">
	<path fill="#DD4814" d="M275.498,29.999C217.326,29.999,170,77.33,170,135.499c0,58.171,47.326,105.496,105.498,105.496
		C333.674,240.995,381,193.67,381,135.499C381,77.33,333.674,29.999,275.498,29.999z M324.945,165.105h-98.887
		c-16.386,0-29.672-13.279-29.672-29.664c0-15.776,12.303-28.666,27.832-29.614c-6.943-13.922-1.929-31.028,11.727-38.918
		c13.657-7.873,30.969-3.668,39.557,9.304c8.592-12.972,25.901-17.178,39.558-9.295c13.656,7.89,18.667,24.985,11.724,38.909
		c15.534,0.952,27.831,13.838,27.831,29.614C354.616,151.826,341.33,165.105,324.945,165.105z M242.533,122.896
		c0,3.638-2.952,6.596-6.593,6.596c-3.641,0-6.596-2.958-6.596-6.596c0-3.645,2.954-6.594,6.596-6.594
		C239.581,116.302,242.533,119.251,242.533,122.896z M262.314,122.896c0,3.638-2.952,6.596-6.593,6.596
		c-3.641,0-6.595-2.958-6.595-6.596c0-3.645,2.954-6.594,6.595-6.594C259.362,116.302,262.314,119.251,262.314,122.896z
		 M282.092,122.896c0,3.638-2.948,6.596-6.593,6.596c-3.641,0-6.593-2.958-6.593-6.596c0-3.645,2.952-6.594,6.593-6.594
		C279.143,116.302,282.092,119.251,282.092,122.896z M301.873,122.896c0,3.638-2.949,6.596-6.593,6.596
		c-3.642,0-6.592-2.958-6.592-6.596c0-3.645,2.95-6.594,6.592-6.594C298.924,116.302,301.873,119.251,301.873,122.896z
		 M321.656,122.896c0,3.638-2.951,6.596-6.595,6.596c-3.639,0-6.592-2.958-6.592-6.596c0-3.645,2.953-6.594,6.592-6.594
		C318.705,116.302,321.656,119.251,321.656,122.896z M242.533,142.673c0,3.642-2.952,6.594-6.593,6.594
		c-3.641,0-6.596-2.952-6.596-6.594c0-3.641,2.954-6.588,6.596-6.588C239.581,136.085,242.533,139.032,242.533,142.673z
		 M255.72,149.267c-3.641,0-6.595-2.952-6.595-6.594c0-3.641,2.954-6.588,6.595-6.588h39.56c3.645,0,6.596,2.947,6.596,6.588
		c0,3.642-2.951,6.594-6.596,6.594H255.72z M321.656,142.673c0,3.642-2.951,6.594-6.595,6.594c-3.639,0-6.592-2.952-6.592-6.594
		c0-3.641,2.953-6.588,6.592-6.588C318.705,136.085,321.656,139.032,321.656,142.673z"/>
	<path fill="#5E2750" d="M119.994,10.733C81.741-11.358,32.822,1.747,10.731,40c-22.089,38.263-8.984,87.186,29.279,109.27
		c38.256,22.087,87.176,8.976,109.261-29.277C171.358,81.728,158.249,32.815,119.994,10.733z M109.998,116.001
		c0,6.628-5.365,11.999-11.997,11.999H62.006c-6.635,0-12.004-5.371-12.004-11.999V43.996c0-6.624,5.369-11.999,12.004-11.999
		h35.994c6.632,0,11.997,5.375,11.997,11.999L109.998,116.001L109.998,116.001z M93.296,60.496H66.71
		c-2.601,0-4.703-2.016-4.703-4.501c0-2.481,2.104-4.501,4.703-4.501h26.587c2.591,0,4.705,2.021,4.705,4.501
		C98.001,58.48,95.887,60.496,93.296,60.496L93.296,60.496z M93.296,48.498H66.71c-2.601,0-4.703-2.012-4.703-4.501
		c0-2.485,2.104-4.501,4.703-4.501h26.587c2.591,0,4.705,2.016,4.705,4.501C98.001,46.486,95.887,48.498,93.296,48.498
		L93.296,48.498z M93.296,72.495H66.71c-2.601,0-4.703-2.012-4.703-4.497s2.104-4.499,4.703-4.499h26.587
		c2.591,0,4.705,2.012,4.705,4.499S95.887,72.495,93.296,72.495L93.296,72.495z M73.995,104.001c0,3.313-2.683,5.996-5.999,5.996
		c-3.308,0-5.99-2.683-5.99-5.996c0-3.312,2.682-6.003,5.99-6.003C71.313,97.998,73.995,100.69,73.995,104.001z"/>
	<path fill="#AEA79F" d="M132.842,210.13c2.361,2.36,3.661,5.5,3.661,8.839c0,3.339-1.301,6.477-3.661,8.838
		c-2.36,2.361-5.499,3.661-8.837,3.661c-3.339,0-6.478-1.301-8.838-3.661c-2.361-2.362-3.662-5.5-3.662-8.838
		s1.301-6.476,3.663-8.838c2.361-2.362,5.5-3.662,8.838-3.662C127.342,206.469,130.481,207.769,132.842,210.13z M159.354,254.352
		c-19.527,19.527-51.182,19.527-70.71,0c-19.525-19.529-19.526-51.182,0-70.709c19.528-19.526,51.185-19.528,70.71-0.002
		C178.881,203.17,178.881,234.825,159.354,254.352z M161.469,225.146v-12.499h-13.272c-0.589-2.268-1.49-4.435-2.692-6.449
		l9.398-9.4l-8.839-8.838l-9.428,9.428c-2.005-1.179-4.161-2.068-6.415-2.643v-13.348h-12.5v13.369
		c-2.246,0.579-4.395,1.469-6.392,2.649l-9.454-9.454l-8.84,8.838l9.444,9.444c-1.188,2-2.083,4.152-2.667,6.404H86.471v12.499
		h13.301c0.574,2.269,1.468,4.439,2.654,6.457l-9.391,9.39l8.84,8.838l9.361-9.361c2.023,1.206,4.203,2.113,6.485,2.701v13.224h12.5
		v-13.204c2.29-0.584,4.478-1.489,6.511-2.696l9.335,9.336l8.839-8.838l-9.346-9.348c1.198-2.029,2.1-4.214,2.678-6.5h13.232
		V225.146z"/>
</g>
<g id="Grid" display="none">
	<g id="Grid_1_" display="inline">
	</g>
</g>
<g id="Labels">
</g>
</svg>
